<svg xmlns="http://www.w3.org/2000/svg" xml:space="preserve" width="1067" height="1067" style="fill-rule:evenodd;clip-rule:evenodd;stroke-linejoin:round;stroke-miterlimit:2" id="threads">
  <g>
    <path d="M1000.02,170.674c-0,-27.627 -10.975,-54.122 -30.51,-73.657c-19.535,-19.535 -46.03,-30.509 -73.657,-30.509l-725,-0c-27.627,-0 -54.122,10.974 -73.657,30.509c-19.535,19.535 -30.51,46.03 -30.51,73.657l0,725c0,27.627 10.975,54.122 30.51,73.657c19.535,19.535 46.03,30.51 73.657,30.51l725,-0c27.627,-0 54.122,-10.975 73.657,-30.51c19.535,-19.535 30.51,-46.03 30.51,-73.657l-0,-725Z"></path>
    <path d="M695.761,496.007c-2.847,-37.515 -19.022,-72.938 -45.812,-99.729c-29.626,-29.626 -69.808,-46.269 -111.705,-46.269c-0.002,-0 -0.003,-0 -0.005,-0c-41.897,-0 -82.079,16.643 -111.705,46.269c-1.78,1.78 -3.513,3.599 -5.198,5.453c-0,-0 -0.555,0.611 -1.492,1.641c-11.608,12.771 -10.665,32.535 2.106,44.144c1.092,0.993 2.189,1.989 3.282,2.982c12.771,11.609 32.535,10.666 44.144,-2.105c0.936,-1.03 1.491,-1.641 1.491,-1.641c0.972,-1.069 1.971,-2.118 2.997,-3.144c17.073,-17.073 40.23,-26.665 64.375,-26.665l0.005,0c24.145,0 47.302,9.592 64.375,26.665c9.486,9.486 16.662,20.85 21.164,33.222c-17.279,-2.351 -36.149,-3.613 -56.74,-3.613c-8.866,0 -25.56,0.744 -48.278,2.12c-64.297,1.351 -115.867,53.827 -115.997,118.266c-0.13,64.045 50.602,116.48 114.371,118.7c12.176,1.559 19.536,2.229 21.1,2.229l0.005,-0c41.897,-0 82.079,-16.644 111.705,-46.27c25.833,-25.834 41.796,-59.694 45.455,-95.722c9.317,7.28 16.604,15.632 22.086,24.848c29.037,48.821 6.569,115.203 -20.65,142.422c-37.687,37.687 -88.801,58.859 -142.098,58.859c-0.001,0 -33,0 -33,0c-53.298,0 -104.412,-21.172 -142.099,-58.859c-37.687,-37.687 -58.859,-88.801 -58.859,-142.098l-0,-130.883c-0,-53.297 21.172,-104.412 58.859,-142.099c37.687,-37.686 88.801,-58.859 142.098,-58.859c0.001,0 33.001,0 33.001,0c53.297,0 104.411,21.173 142.098,58.859c23.406,23.406 40.441,51.991 49.992,83.061c-0,-0 0.242,0.789 0.651,2.119c5.071,16.497 22.555,25.76 39.052,20.689c1.411,-0.434 2.828,-0.869 4.239,-1.303c16.497,-5.071 25.76,-22.555 20.689,-39.052c-0.409,-1.33 -0.651,-2.119 -0.651,-2.119c-12.731,-41.419 -35.441,-79.523 -66.642,-110.724c-50.24,-50.24 -118.379,-78.464 -189.428,-78.464c-10.986,-0 -22.015,-0 -33.001,-0c-71.049,-0 -139.188,28.224 -189.428,78.464c-50.239,50.239 -78.463,118.379 -78.463,189.428l-0,130.883c-0,71.049 28.224,139.188 78.463,189.428c50.24,50.239 118.379,78.464 189.428,78.464l33.001,-0c71.049,-0 139.188,-28.225 189.428,-78.464c42.761,-42.761 76.465,-147.271 30.847,-223.969c-15.729,-26.445 -40.911,-50.578 -79.256,-67.164Zm-66.477,49.333c-17.947,-3.383 -38.608,-5.188 -62.241,-5.188c-8.216,-0 -23.76,0.752 -44.93,2.039c-0.517,0.032 -1.034,0.051 -1.552,0.059c-28.165,0.403 -50.802,23.32 -50.859,51.488c-0.057,28.168 22.487,51.177 50.65,51.694c1.238,0.023 2.474,0.114 3.702,0.274c7.154,0.931 13.468,1.668 15.294,1.878c23.744,-0.28 46.457,-9.838 63.271,-26.652c17.073,-17.073 26.665,-40.229 26.665,-64.374l-0,-11.218Z" style="fill:#fff"></path>
  </g>
</svg>
