<?xml version="1.0" encoding="UTF-8"?>
<svg width="3.5in" height="2in" enable-background="new 0 0 100 100" inkscape:version="1.0.2 (e86c870879, 2021-01-15, custom)" sodipodi:docname="logo4.4.svg" version="1.1" viewBox="0 0 336 192" xml:space="preserve" xmlns="http://www.w3.org/2000/svg" xmlns:cc="http://creativecommons.org/ns#" xmlns:dc="http://purl.org/dc/elements/1.1/" xmlns:inkscape="http://www.inkscape.org/namespaces/inkscape" xmlns:osb="http://www.openswatchbook.org/uri/2009/osb" xmlns:rdf="http://www.w3.org/1999/02/22-rdf-syntax-ns#" xmlns:sodipodi="http://sodipodi.sourceforge.net/DTD/sodipodi-0.dtd"><title>PALPortal LOGO</title><metadata><rdf:RDF><cc:Work rdf:about=""><dc:format>image/svg+xml</dc:format><dc:type rdf:resource="http://purl.org/dc/dcmitype/StillImage"/><dc:title>PALPortal LOGO</dc:title><dc:date>3/13/2021</dc:date><dc:creator><cc:Agent><dc:title>Priti Bhavsar</dc:title></cc:Agent></dc:creator><dc:rights><cc:Agent><dc:title>Copyright</dc:title></cc:Agent></dc:rights></cc:Work></rdf:RDF></metadata><sodipodi:namedview bordercolor="#000000" borderopacity="0" gridtolerance="10000" guidetolerance="10000" inkscape:current-layer="Layer_1" inkscape:cx="54.775957" inkscape:cy="50" inkscape:pagecheckerboard="true" inkscape:pageopacity="0" inkscape:pageshadow="2" inkscape:snap-path-clip="false" inkscape:window-height="705" inkscape:window-maximized="1" inkscape:window-width="1366" inkscape:window-x="-8" inkscape:window-y="-8" inkscape:zoom="5.38" objecttolerance="10000" pagecolor="#ffffff" showgrid="false" showguides="false" units="in"/>

	<path d="m58.373 14.36c16.656 0 28.283 13.787 25.702 30.438-2.583 16.648-18.484 30.438-35.141 30.438h-10.972l-1.35 9.536-10.074 5.776c1.92-12.385 1.857-11.976 3.777-24.36h20.021c11.672 0 22.911-9.712 24.723-21.39 1.811-11.677-6.419-21.39-18.09-21.39h-52.713l13.554-9.048h40.563z" fill="#d40000"/>
	<path d="m17.649 31.161h36.162c7.498 0 12.686 6.136 11.522 13.637-1.157 7.475-8.272 13.64-15.752 13.64h-18.065l13.553-9.048h5.914c2.517 0 4.911-2.069 5.301-4.592 0.392-2.525-1.354-4.59-3.878-4.59h-27.111l-7.805 50.34h-9.048c3.73-24.062 5.479-35.328 9.207-59.387z" fill="#2c89a0"/>

</svg>
