<?xml version="1.0" encoding="UTF-8" standalone="no"?>
<svg
   xmlns:osb="http://www.openswatchbook.org/uri/2009/osb"
   xmlns:dc="http://purl.org/dc/elements/1.1/"
   xmlns:cc="http://creativecommons.org/ns#"
   xmlns:rdf="http://www.w3.org/1999/02/22-rdf-syntax-ns#"
   xmlns:svg="http://www.w3.org/2000/svg"
   xmlns="http://www.w3.org/2000/svg"
   xmlns:sodipodi="http://sodipodi.sourceforge.net/DTD/sodipodi-0.dtd"
   xmlns:inkscape="http://www.inkscape.org/namespaces/inkscape"
   version="1.1"
   id="Layer_1"
   x="0px"
   y="0px"
   width="3.5in"
   height="2in"
   viewBox="0 0 336 192"
   enable-background="new 0 0 100 100"
   xml:space="preserve"
   sodipodi:docname="logo4.5.svg"
   inkscape:version="1.0.2 (e86c870879, 2021-01-15, custom)"><title
   id="title15">PALPortal LOGO</title><metadata
   id="metadata13"><rdf:RDF><cc:Work
       rdf:about=""><dc:format>image/svg+xml</dc:format><dc:type
         rdf:resource="http://purl.org/dc/dcmitype/StillImage" /><dc:title>PALPortal LOGO</dc:title><dc:date>3/13/2021</dc:date><dc:creator><cc:Agent><dc:title>Priti Bhavsar</dc:title></cc:Agent></dc:creator><dc:rights><cc:Agent><dc:title>Copyright</dc:title></cc:Agent></dc:rights></cc:Work></rdf:RDF></metadata><defs
   id="defs11"><linearGradient
     id="linearGradient3006"
     osb:paint="solid"><stop
       style="stop-color:#930c00;stop-opacity:1;"
       offset="0"
       id="stop3004" /></linearGradient></defs><sodipodi:namedview
   pagecolor="#ffffff"
   bordercolor="#000000"
   borderopacity="0"
   objecttolerance="10000"
   gridtolerance="10000"
   guidetolerance="10000"
   inkscape:pageopacity="0"
   inkscape:pageshadow="2"
   inkscape:window-width="1366"
   inkscape:window-height="705"
   id="namedview9"
   showgrid="false"
   units="in"
   inkscape:pagecheckerboard="true"
   showguides="false"
   inkscape:snap-path-clip="false"
   inkscape:zoom="5.38"
   inkscape:cx="54.775957"
   inkscape:cy="50"
   inkscape:window-x="-8"
   inkscape:window-y="-8"
   inkscape:window-maximized="1"
   inkscape:current-layer="Layer_1" />
<g
   id="g6">
	<path
   fill="#c21e3f"
   d="m 58.373,14.36 c 16.656,0 28.283,13.787 25.702,30.438 C 81.492,61.446 65.591,75.236 48.934,75.236 H 37.962 l -1.35,9.536 -10.074,5.776 c 1.92,-12.385 1.857,-11.976 3.777,-24.36 h 20.021 c 11.672,0 22.911,-9.712 24.723,-21.39 1.811,-11.677 -6.419,-21.39 -18.09,-21.39 -12.706,0 -40.006,0 -52.713,0 L 17.81,14.36 c 12.706,0 27.857,0 40.563,0 z"
   id="path2"
   style="fill:#d40000;fill-opacity:1" />
	<path
   fill="#6cb262"
   d="m 17.649,31.161 c 12.053,0 24.108,0 36.162,0 7.498,0 12.686,6.136 11.522,13.637 -1.157,7.475 -8.272,13.64 -15.752,13.64 H 31.516 L 45.069,49.39 h 5.914 c 2.517,0 4.911,-2.069 5.301,-4.592 0.392,-2.525 -1.354,-4.59 -3.878,-4.59 -9.038,0 -18.075,0 -27.111,0 L 17.49,90.548 H 8.442 c 3.73,-24.062 5.479,-35.328 9.207,-59.387 z"
   id="path4"
   style="fill:#2c89a0" />
</g>
</svg>
