<?xml version="1.0" encoding="utf-8"?>
<!-- Generator: Adobe Illustrator 18.1.0, SVG Export Plug-In . SVG Version: 6.00 Build 0)  -->
<svg version="1.1" id="Layer_1" xmlns="http://www.w3.org/2000/svg" xmlns:xlink="http://www.w3.org/1999/xlink" x="0px" y="0px"
	 viewBox="0 0 1000 1000" enable-background="new 0 0 1000 1000" xml:space="preserve">
<g>
	<path fill="#84AC3E" d="M710.7,225.3c-106,0-150.7,0.7-256.7,0.7v120h154l0,0h102.7c161.3,0,162.7,238.7,0,238.7H454v2.7l0,0v312
		h126.7v-198H710C1040.7,701.3,1039.3,225.3,710.7,225.3z"/>
	<rect x="245.3" y="191.3" fill="#929296" width="47.3" height="47.3"/>
	<rect x="123.3" y="317.3" fill="#929296" width="58" height="57.3"/>
	<rect x="226" y="298.7" fill="#929296" width="66.7" height="66.7"/>
	<rect x="396" y="374.7" fill="#84AC3E" width="184" height="180.7"/>
	<rect x="342" y="229.3" fill="#84AC3E" width="87.3" height="86"/>
	<rect x="226" y="414.7" fill="#84AC3E" width="106.7" height="104.7"/>
	<rect x="146" y="112" fill="#84AC3E" width="58" height="57.3"/>
	<rect x="48.7" y="100.7" fill="#84AC3E" width="47.3" height="47.3"/>
	<rect x="64.7" y="191.3" fill="#84AC3E" width="47.3" height="47.3"/>
	<rect x="157.3" y="229.3" fill="#84AC3E" width="36.7" height="36.7"/>
</g>
</svg>
