<?xml version="1.0" encoding="utf-8"?>
<!-- Generator: Adobe Illustrator 18.1.0, SVG Export Plug-In . SVG Version: 6.00 Build 0)  -->
<svg version="1.1" id="Layer_1" xmlns="http://www.w3.org/2000/svg" xmlns:xlink="http://www.w3.org/1999/xlink" x="0px" y="0px"
	 viewBox="0 0 150 150" enable-background="new 0 0 150 150" xml:space="preserve">
<g>
	<g>
		<path fill="#504E5C" d="M82.9,47.5l16.5,4.3c1.6-5,2.1-10.1,1.6-15.1c-0.6-5-2.2-9.9-4.7-14.3c-2.6-4.4-6.1-8.4-10.4-11.5
			c-4.3-3.1-9.3-5.5-14.9-6.7c-1.6-0.4-3.3-0.6-4.9-0.8c-1.6-0.2-3.3-0.2-4.9-0.2c-1.6,0-3.2,0.1-4.8,0.3c-1.6,0.2-3.1,0.5-4.6,0.9
			l4.2,16.3c0.8-0.1,1.6-0.2,2.4-0.3c0.8-0.1,1.6-0.1,2.5,0c0.8,0,1.7,0.1,2.5,0.2c0.8,0.1,1.7,0.3,2.5,0.5c3.1,0.7,5.9,2,8.3,3.8
			c2.4,1.7,4.4,3.9,6,6.3c1.5,2.4,2.6,5.1,3,7.9C83.6,41.8,83.6,44.7,82.9,47.5z"/>
		<path fill="#504E5C" d="M125.1,80.6c-0.9,0-1.8,0.1-2.6,0.1c-0.9,0-1.8-0.1-2.6-0.2c-0.9-0.1-1.7-0.2-2.6-0.4
			c-0.9-0.2-1.7-0.4-2.6-0.6c-3.1-0.9-5.9-2.2-8.2-3.9c-2.3-1.7-4.2-3.7-5.6-5.9c-1.4-2.2-2.4-4.7-2.8-7.3c-0.4-2.6-0.3-5.4,0.5-8.2
			l-16.4-4.3c-1.4,4.8-1.6,9.6-1,14c0.6,4.4,2.2,8.6,4.6,12.4c2.3,3.7,5.4,7.1,9.2,9.9c3.8,2.8,8.3,5.1,13.5,6.6
			c1.5,0.5,3.1,0.8,4.7,1.1c1.6,0.3,3.2,0.5,4.7,0.7c1.6,0.2,3.2,0.3,4.8,0.3c1.6,0,3.2,0,4.9-0.2L125.1,80.6z"/>
		<path fill="#504E5C" d="M40.1,10.2c-2.6,1.8-4.9,3.9-6.9,6.2c-2,2.2-3.7,4.7-5.1,7.2c-1.4,2.5-2.5,5.2-3.3,7.9
			c-0.5,1.7-0.8,3.4-1.1,5.1c-0.2,1.7-0.3,3.4-0.3,5.2c0,1.7,0.2,3.5,0.4,5.2c0.3,1.7,0.7,3.4,1.2,5.2c0.4,1.3,0.9,2.6,1.4,3.8
			c0.5,1.2,1.1,2.4,1.8,3.6c0.1,0.1,0.2,0.3,0.3,0.4l-2.9,1.7l7.9,2.6l7.9,2.6l1.6-8.2l1.6-8.2l-4,2.3l0,0c-0.3-0.6-0.6-1.3-0.9-2
			c-0.3-0.7-0.5-1.4-0.7-2.1c-0.3-1.1-0.5-2.1-0.7-3.2c-0.1-1.1-0.2-2.1-0.2-3.2c0-1.1,0.1-2.1,0.3-3.1c0.2-1,0.4-2.1,0.7-3.1
			c0.5-1.6,1.2-3.1,2-4.5c0.8-1.4,1.8-2.8,3-4c1.2-1.3,2.5-2.4,3.9-3.4c1.5-1,3-1.9,4.8-2.6L48.8,5.6C45.6,6.8,42.7,8.4,40.1,10.2z"
			/>
	</g>
	<g>
		<path fill="#A3B5B5" d="M24.2,122.4c-0.5-0.7-0.9-1.4-1.3-2.1c-0.4-0.7-0.7-1.5-1.1-2.3c-0.3-0.8-0.6-1.6-0.8-2.4
			c-0.9-3.1-1.2-6.1-0.9-9.1c0.3-2.9,1.1-5.8,2.5-8.3c1.3-2.5,3.1-4.8,5.3-6.6c2.2-1.8,4.7-3.2,7.5-4.1l-4.5-16.5
			c-5.1,1.1-9.8,3.2-13.9,6.2c-4.1,3-7.5,6.8-10,11.2c-2.6,4.5-4.2,9.5-4.8,14.8c-0.6,5.3-0.1,10.8,1.7,16.3
			c0.5,1.6,1.1,3.2,1.8,4.7c0.7,1.5,1.4,2.9,2.3,4.3c0.8,1.4,1.7,2.7,2.7,4c1,1.2,2,2.4,3.1,3.6l12-11.8
			C25.1,123.8,24.7,123.1,24.2,122.4z"/>
		<path fill="#A3B5B5" d="M50.4,80.9c3.5-2.8,6.3-6.2,8.4-10.1c2.1-3.9,3.4-8.3,4-13c0.5-4.7,0.2-9.7-1-15c-0.4-1.6-0.8-3.1-1.3-4.6
			c-0.5-1.5-1.1-3-1.8-4.5c-0.7-1.5-1.4-2.9-2.2-4.3c-0.8-1.4-1.6-2.8-2.6-4.1l-11,9.1c0.5,0.7,0.9,1.5,1.4,2.3
			c0.4,0.8,0.8,1.6,1.2,2.4c0.4,0.8,0.7,1.6,1,2.4c0.3,0.8,0.5,1.7,0.8,2.5c0.8,3.1,1,6.2,0.7,9c-0.3,2.8-1.1,5.5-2.3,7.8
			c-1.2,2.4-2.9,4.4-5,6.1c-2.1,1.7-4.6,3-7.4,3.7l4.5,16.4C42.6,85.9,46.8,83.7,50.4,80.9z"/>
		<path fill="#A3B5B5" d="M75.8,132.1l-1-8.3l-1-8.3l-8.1,2.1l-8.1,2.1l3.2,2.2c-0.3,0.5-0.6,0.9-1,1.4c-0.5,0.6-0.9,1.1-1.5,1.7
			c-0.8,0.8-1.6,1.5-2.4,2.2c-0.9,0.7-1.7,1.2-2.7,1.7c-0.9,0.5-1.9,1-2.9,1.3c-1,0.4-2,0.7-3,0.9c-1.6,0.3-3.2,0.5-4.9,0.5
			c-1.7,0-3.3-0.2-5-0.6c-1.7-0.4-3.3-0.9-4.9-1.7c-1.6-0.8-3.2-1.7-4.6-2.8l-11.9,11.7c2.6,2.1,5.5,3.8,8.4,5.1
			c2.9,1.3,5.8,2.3,8.8,2.9c2.9,0.6,5.9,0.9,8.8,0.8c2.9-0.1,5.7-0.5,8.5-1.1c1.7-0.4,3.4-1,5-1.6c1.6-0.7,3.2-1.4,4.7-2.3
			c1.5-0.9,2.9-1.9,4.3-3c1.4-1.1,2.7-2.3,3.9-3.6c0.9-1,1.8-2.1,2.6-3.2c0.6-0.8,1.1-1.5,1.6-2.3L75.8,132.1z"/>
	</g>
	<g>
		<path fill="#56C7E6" d="M129.6,101c-0.4,0.7-0.8,1.5-1.2,2.2c-0.4,0.7-0.9,1.4-1.4,2.1c-0.5,0.7-1.1,1.3-1.7,1.9
			c-2.2,2.3-4.7,4.1-7.4,5.3c-2.7,1.2-5.6,1.9-8.4,2c-2.8,0.1-5.7-0.3-8.3-1.3c-2.6-1-5.1-2.5-7.3-4.5l-12,12.1
			c3.5,3.9,7.7,6.9,12.3,8.9c4.6,2,9.7,3.1,14.7,3.1c5.1,0,10.3-1.1,15.2-3.2c4.9-2.1,9.4-5.4,13.3-9.6c1.1-1.2,2.2-2.5,3.2-3.9
			c1-1.3,1.8-2.7,2.6-4.1c0.8-1.4,1.5-2.8,2.1-4.3c0.6-1.5,1.1-2.9,1.5-4.4l-16.2-4.5C130.2,99.5,129.9,100.3,129.6,101z"/>
		<path fill="#56C7E6" d="M80.6,99.1c-4.1-1.6-8.5-2.4-13-2.2c-4.4,0.1-8.9,1.2-13.2,3.1c-4.3,1.9-8.6,4.7-12.5,8.4
			c-1.2,1.1-2.3,2.3-3.3,3.5c-1,1.2-2,2.5-3,3.8c-0.9,1.3-1.8,2.6-2.6,4c-0.8,1.4-1.6,2.8-2.3,4.3l13.4,4.9c0.4-0.8,0.8-1.6,1.3-2.3
			c0.5-0.8,0.9-1.5,1.5-2.2c0.5-0.7,1.1-1.4,1.6-2.1c0.6-0.7,1.2-1.3,1.8-1.9c2.3-2.3,4.8-4,7.4-5.1c2.6-1.2,5.3-1.8,7.9-1.9
			c2.7-0.1,5.3,0.3,7.8,1.3c2.5,1,4.8,2.5,6.9,4.5l12-12C88.7,103.4,84.8,100.8,80.6,99.1z"/>
		<path fill="#56C7E6" d="M147.5,90.3c-0.3-3.1-0.9-6.2-1.9-9.1c-0.9-2.8-2.2-5.5-3.7-8c-1.5-2.5-3.3-4.7-5.2-6.8
			c-1.2-1.2-2.5-2.4-3.9-3.5c-1.4-1.1-2.8-2-4.3-2.9c-1.5-0.9-3.1-1.6-4.7-2.2c-1.6-0.6-3.3-1.1-5.1-1.5c-1.3-0.3-2.7-0.5-4-0.7
			c-1.2-0.1-2.3-0.2-3.5-0.2l-0.3-4.6l-5.9,5.8L99,62.5l6.6,5.1l6.6,5.1l-0.2-3.2c0.2,0,0.3,0,0.5,0c0.7,0.1,1.5,0.2,2.2,0.4
			c1.1,0.3,2.1,0.6,3.1,1c1,0.4,1.9,0.9,2.8,1.4c0.9,0.5,1.8,1.2,2.6,1.8c0.8,0.7,1.6,1.4,2.3,2.2c1.1,1.2,2.1,2.5,2.9,4
			c0.8,1.4,1.5,3,2,4.6c0.5,1.6,0.9,3.3,1,5.1c0.2,1.8,0.1,3.6-0.1,5.4l16.1,4.5C147.7,96.8,147.8,93.5,147.5,90.3z"/>
	</g>
</g>
</svg>
