<?xml version="1.0" encoding="utf-8"?>
<svg xmlns="http://www.w3.org/2000/svg" version="1.1" width="132" height="46" viewBox="0 0 132 46" xmlns:bx="https://boxy-svg.com"><title>PALPortals</title><desc>Created by Dipal Bhavsar</desc><defs><style bx:fonts="Asset">@import url(https://fonts.googleapis.com/css2?family=Asset%3Aital%2Cwght%400%2C400&amp;display=swap);</style><bx:export><bx:file format="svg"/></bx:export><style bx:fonts="Audiowide">@import url(https://fonts.googleapis.com/css2?family=Audiowide%3Aital%2Cwght%400%2C400&amp;display=swap);</style></defs><g transform="matrix(0.41 0 0 0.41 19.96 18.12)"><g style=""><g transform="matrix(1 0 0 1 -5.66 2.45)" id="Layer_1"><path style="stroke: none; stroke-width: 1; stroke-dasharray: none; stroke-linecap: butt; stroke-dashoffset: 0; stroke-linejoin: miter; stroke-miterlimit: 4; fill: rgb(194,30,63); fill-rule: nonzero; opacity: 1;" transform=" translate(-44.34, -52.45)" d="M 58.373 14.36 c 16.656 0 28.283 13.787 25.702 30.438 c -2.583 16.648 -18.484 30.438 -35.141 30.438 H 37.962 l -1.35 9.536 l -10.074 5.776 c 1.92 -12.385 1.857 -11.976 3.777 -24.36 h 20.021 c 11.672 0 22.911 -9.712 24.723 -21.39 c 1.811 -11.677 -6.419 -21.39 -18.09 -21.39 c -12.706 0 -40.006 0 -52.713 0 l 13.554 -9.048 C 30.516 14.36 45.667 14.36 58.373 14.36 z" stroke-linecap="round"/></g><g transform="matrix(1 0 0 1 -13.03 10.85)" id="Layer_1"><path style="stroke: none; stroke-width: 1; stroke-dasharray: none; stroke-linecap: butt; stroke-dashoffset: 0; stroke-linejoin: miter; stroke-miterlimit: 4; fill: rgb(108,178,98); fill-rule: nonzero; opacity: 1;" transform=" translate(-36.97, -60.85)" d="M 17.649 31.161 c 12.053 0 24.108 0 36.162 0 c 7.498 0 12.686 6.136 11.522 13.637 c -1.157 7.475 -8.272 13.64 -15.752 13.64 H 31.516 l 13.553 -9.048 h 5.914 c 2.517 0 4.911 -2.069 5.301 -4.592 c 0.392 -2.525 -1.354 -4.59 -3.878 -4.59 c -9.038 0 -18.075 0 -27.111 0 l -7.805 50.34 H 8.442 C 12.172 66.486 13.921 55.22 17.649 31.161 z" stroke-linecap="round"/></g></g></g><g transform="matrix(1.25 0 0 1.49 88.67 31.49)" style=""><text style="fill: rgb(108, 178, 98); font-family: Audiowide; font-size: 13.4228px; font-weight: 700; white-space: pre;" x="-44.71 -32.43 -20.24 -9.7 0.65 12.69 21.74" y="3.14 3.14 3.14 3.14 3.14 3.14 3.14">Portals</text><text style="white-space: pre; fill: rgb(51, 51, 51); font-family: Asset; font-size: 18px;" transform="matrix(0.8, 0, 0, 0.671141, -23.109912, 21.780863)"> </text></g><text style="fill: rgb(194, 30, 63); font-family: Asset; font-size: 17.9992px; font-weight: 700; letter-spacing: 2px; text-transform: uppercase; word-spacing: 1px; white-space: pre;" transform="matrix(1.098006, -0.010446, 0.010427, 1.528223, -17.515856, -7.196606)" x="47.553" y="18.296">PAL</text></svg>