<svg width="1437" height="659" viewBox="0 0 1437 659" fill="none" xmlns="http://www.w3.org/2000/svg">
<g clip-path="url(#clip0)">
<rect width="1437" height="659" fill="white"/>
<path d="M-27.9055 -7H1437V573.926C1054.89 610.015 240.926 676.679 89.2458 654.624C-62.4344 632.57 -52.0552 204.352 -27.9055 -7Z" fill="url(#paint0_linear)"/>
<rect width="866.775" height="451.586" rx="100" transform="matrix(0.905721 0.423874 -0.443203 0.896421 542.498 334)" fill="#C4C4C4" fill-opacity="0.05"/>
<rect width="866.775" height="451.586" rx="100" transform="matrix(0.905721 0.423874 -0.443203 0.896421 542.498 334)" fill="url(#paint1_linear)" fill-opacity="0.05"/>
<rect width="678.948" height="353.729" rx="100" transform="matrix(0.905721 0.423874 -0.443203 0.896421 -104.226 331)" fill="#C4C4C4" fill-opacity="0.05"/>
<rect width="678.948" height="353.729" rx="100" transform="matrix(0.905721 0.423874 -0.443203 0.896421 -104.226 331)" fill="url(#paint2_linear)" fill-opacity="0.05"/>
<rect width="511.332" height="266.402" rx="100" transform="matrix(0.905721 0.423874 -0.443203 0.896421 -203.559 58)" fill="#C4C4C4" fill-opacity="0.05"/>
<rect width="511.332" height="266.402" rx="100" transform="matrix(0.905721 0.423874 -0.443203 0.896421 -203.559 58)" fill="url(#paint3_linear)" fill-opacity="0.05"/>
<rect width="511.332" height="266.402" rx="100" transform="matrix(0.905721 0.423874 -0.443203 0.896421 1229.25 228)" fill="#C4C4C4" fill-opacity="0.05"/>
<rect width="511.332" height="266.402" rx="100" transform="matrix(0.905721 0.423874 -0.443203 0.896421 1229.25 228)" fill="url(#paint4_linear)" fill-opacity="0.05"/>
<rect width="866.775" height="451.586" rx="100" transform="matrix(0.905721 0.423874 -0.443203 0.896421 1270.21 -80)" fill="#C4C4C4" fill-opacity="0.05"/>
<rect width="866.775" height="451.586" rx="100" transform="matrix(0.905721 0.423874 -0.443203 0.896421 1270.21 -80)" fill="url(#paint5_linear)" fill-opacity="0.05"/>
<rect width="866.775" height="451.586" rx="100" transform="matrix(0.905721 0.423874 -0.443203 0.896421 544.553 -678)" fill="#C4C4C4" fill-opacity="0.05"/>
<rect width="866.775" height="451.586" rx="100" transform="matrix(0.905721 0.423874 -0.443203 0.896421 544.553 -678)" fill="url(#paint6_linear)" fill-opacity="0.05"/>
</g>
<defs>
<linearGradient id="paint0_linear" x1="957.019" y1="554.248" x2="132.235" y2="46.3749" gradientUnits="userSpaceOnUse">
<stop stop-color="#6740C8"/>
<stop offset="1" stop-color="#9D77FF"/>
</linearGradient>
<linearGradient id="paint1_linear" x1="433.388" y1="0" x2="433.388" y2="451.586" gradientUnits="userSpaceOnUse">
<stop stop-color="white"/>
<stop offset="1" stop-color="white" stop-opacity="0"/>
</linearGradient>
<linearGradient id="paint2_linear" x1="339.474" y1="0" x2="339.474" y2="353.729" gradientUnits="userSpaceOnUse">
<stop stop-color="white"/>
<stop offset="1" stop-color="white" stop-opacity="0"/>
</linearGradient>
<linearGradient id="paint3_linear" x1="255.666" y1="0" x2="255.666" y2="266.402" gradientUnits="userSpaceOnUse">
<stop stop-color="white"/>
<stop offset="1" stop-color="white" stop-opacity="0"/>
</linearGradient>
<linearGradient id="paint4_linear" x1="255.666" y1="0" x2="255.666" y2="266.402" gradientUnits="userSpaceOnUse">
<stop stop-color="white"/>
<stop offset="1" stop-color="white" stop-opacity="0"/>
</linearGradient>
<linearGradient id="paint5_linear" x1="433.388" y1="0" x2="433.388" y2="451.586" gradientUnits="userSpaceOnUse">
<stop stop-color="white"/>
<stop offset="1" stop-color="white" stop-opacity="0"/>
</linearGradient>
<linearGradient id="paint6_linear" x1="433.388" y1="0" x2="433.388" y2="451.586" gradientUnits="userSpaceOnUse">
<stop stop-color="white"/>
<stop offset="1" stop-color="white" stop-opacity="0"/>
</linearGradient>
<clipPath id="clip0">
<rect width="1437" height="659" fill="white"/>
</clipPath>
</defs>
</svg>
