<?xml version="1.0" encoding="utf-8"?>

<!DOCTYPE svg PUBLIC "-//W3C//DTD SVG 1.1//EN" "http://www.w3.org/Graphics/SVG/1.1/DTD/svg11.dtd">
<svg version="1.1" id="Layer_1" xmlns="http://www.w3.org/2000/svg" xmlns:xlink="http://www.w3.org/1999/xlink" x="0px" y="0px"
	 viewBox="0 0 1583.096 1643.352" enable-background="new 0 0 1583.096 1643.352" xml:space="preserve">
<g>
	<path stroke="#000000" d="M767.251,31.203c10.244-3.059,20.304-6.826,30.656-9.526c7.156,2,14.022,4.972,21.081,7.322
		c211.171,75.644,422.342,151.297,633.503,226.941c14.07,5.137,28.267,9.924,42.24,15.294
		c-229.184,84.063-458.329,168.242-687.483,252.391c-2.136,0.816-4.224,1.748-6.351,2.583c-1.932,0.301-3.923,0.252-5.778-0.34
		c-51.717-17.401-103.619-34.219-155.356-51.562c-62.321-20.634-124.526-41.599-186.915-62.02
		c67.264-39.395,139.217-70.167,212.385-96.735c39.754-14.206,79.897-27.441,120.641-38.511c8.671,2.68,18.139,2.36,26.733-0.505
		c4.855-1.719,9.788-4.438,12.371-9.089c2.146-3.777,1.563-8.798-1.311-12.031c-4.758-5.477-12.002-8.108-19.032-9.021
		c-9.002-1.058-18.576-0.252-26.626,4.205c-2.35,1.233-4.107,3.272-5.642,5.389c-70.857,21.091-140.8,45.406-208.802,74.449
		c-49.057,20.984-97.103,44.512-142.674,72.323c-4.496-3.263-10.002-4.37-15.158-6.127c-40.541-13.517-81.091-26.985-121.642-40.492
		c-80.256-26.402-160.386-53.213-240.564-79.868c-7.215-2.515-14.585-4.583-21.722-7.302c17.605-6.205,35.55-11.419,53.281-17.236
		C305.806,178.227,536.533,104.729,767.251,31.203 M1099.015,158c5.253,7.234,11.555,13.653,16.653,21.033
		c21.926,29.607,37.385,65.03,38.715,102.221c1.612,34.637-8.797,69.429-28.15,98.094c20.664-6.923,41.104-14.546,61.68-21.771
		c81.887-29.112,163.746-58.34,245.652-87.403c0.029-0.311,0.097-0.913,0.126-1.214C1322.101,232.1,1210.587,194.948,1099.015,158z"
		/>
	<path fill="#2D2D2D" stroke="#2D2D2D" d="M1099.015,158c111.572,36.948,223.086,74.1,334.677,110.96
		c-0.029,0.301-0.097,0.903-0.126,1.214c-81.907,29.063-163.765,58.291-245.652,87.403c-20.576,7.225-41.017,14.847-61.68,21.771
		c19.353-28.665,29.762-63.457,28.15-98.094c-1.33-37.191-16.789-72.614-38.715-102.221
		C1110.57,171.653,1104.268,165.235,1099.015,158z"/>
	<path fill="#333333" stroke="#333333" d="M778.01,250.598c8.05-4.457,17.624-5.263,26.626-4.205
		c7.03,0.913,14.274,3.544,19.032,9.021c2.874,3.234,3.457,8.254,1.311,12.031c-2.583,4.651-7.516,7.37-12.371,9.089
		c-8.594,2.865-18.061,3.185-26.733,0.505c6.749-2.398,14.779-2.787,20.032-8.196c5.486-5.613,3.399-15.896-3.399-19.479
		c-1.913-1.253-4.195-0.418-6.195,0.039c-7.982,2.204-15.944,4.486-23.946,6.584C773.903,253.871,775.66,251.832,778.01,250.598z"/>
	<path fill="#D4AF37" stroke="#D4AF37" d="M796.314,249.404c2-0.456,4.282-1.291,6.195-0.039c6.797,3.583,8.885,13.866,3.399,19.479
		c-5.253,5.409-13.284,5.797-20.032,8.196c-40.745,11.07-80.887,24.305-120.641,38.511c-73.167,26.568-145.121,57.34-212.385,96.735
		c-4.37,2.525-8.691,5.117-12.944,7.817c-2.641,1.602-5.321,3.146-7.875,4.884c-32.093,20.198-62.826,42.871-89.86,69.555
		c-17.809,17.819-34.044,37.453-46.28,59.554c-2.233,3.952-4.059,8.128-6.516,11.953c-10.623,16.906-15.498,37.113-14.896,56.99
		c0.34,3.738,0.184,7.623,1.301,11.245c8.157,6.088,16.605,13.556,18.459,24.111c1.923,10.613-4.127,20.654-11.487,27.772
		c17.721,57.243,35.414,114.485,53.057,171.747c-8.924,12.157-20.168,23.402-34.52,28.84c-13.031,5.117-28.053,3.438-40.24-3.166
		c-0.049-8.283,0.117-16.585-0.689-24.829c-0.787-9.303-0.136-18.634-0.466-27.946c-1.758-20.324-0.34-40.754-1.146-61.117
		c-1.029-9.691-0.553-19.44-0.67-29.16c0-16.197-0.146-32.394,0.01-48.591c-0.078-1.777,0-3.622-0.621-5.302
		c-1.991-3.107-5.059-5.331-7.089-8.409c-3.428-4.875-4.127-11.002-4.574-16.78c-0.35-3.806,0.796-7.623,3.02-10.691
		c3.564-5.409,9.419-8.526,14.109-12.798c-2.486-0.32-4.981-0.612-7.467-0.884c2.107-20.625,7.428-40.871,14.585-60.292
		c8.866-24.645,21.732-47.678,36.705-69.109c4.379-6.788,10.497-12.167,15.614-18.362c12.196-12.4,24.616-24.587,36.851-36.958
		c4.496-4.583,9.71-8.39,14.129-13.06c2.884-2.865,6.195-5.535,7.729-9.438c0.476-0.893,1.389-1.418,2.156-2.03
		c8.089-5.787,16.304-11.4,24.655-16.799c4.35-2.738,8.681-5.496,13.002-8.273c45.571-27.81,93.618-51.339,142.674-72.323
		c68.002-29.044,137.945-53.358,208.802-74.449C780.37,253.89,788.332,251.608,796.314,249.404 M275.791,656.229
		c-2.806,1.01-5.079,3.612-5.409,6.622c0.243,3.564,3.554,6.215,7.04,6.215c4.049,0.728,8.011-2.505,9.05-6.234
		C286.851,657.365,280.394,654.267,275.791,656.229z"/>
	<path fill="#1A1A1A" stroke="#1A1A1A" d="M21.001,268.669l0.806,0.301c7.137,2.719,14.507,4.787,21.722,7.302
		c80.178,26.655,160.308,53.465,240.564,79.868c40.55,13.507,81.101,26.975,121.642,40.492c5.156,1.758,10.662,2.865,15.158,6.127
		c-4.321,2.777-8.652,5.535-13.002,8.273c-1.495-0.816-3.03-1.554-4.612-2.136c-123.156-42.9-246.293-85.869-369.44-128.788
		c-4.331-1.515-8.7-2.923-12.944-4.661C20.865,273.185,20.884,270.922,21.001,268.669z"/>
	<path fill="#4D4D4D" stroke="#4D4D4D" d="M807.248,523.624c229.155-84.15,458.299-168.329,687.483-252.391
		c-0.427,1.612,0.252,4.253-1.593,5.059c-113.679,44.668-227.436,89.141-341.095,133.867c-11.682,4.515-23.412,8.933-35.006,13.662
		c-15.304,6.263-30.889,11.847-46.182,18.139c-23.926,9.584-48.105,18.547-71.954,28.306c-22.295,8.71-44.648,17.275-66.865,26.15
		c-18.178,7.176-36.433,14.167-54.582,21.411c-10.293,4.039-20.596,8.021-30.869,12.089c-5.273,2.097-10.701,3.836-15.711,6.516
		c-10.157,3.175-19.741,7.933-29.898,11.099c-0.243-7.108-0.01-14.216-0.078-21.324C803.024,525.372,805.112,524.44,807.248,523.624
		z"/>
	<path fill="#C7A434" stroke="#C7A434" d="M371.516,436.493c3.146-2.272,6.03-4.962,9.565-6.632
		c-1.534,3.904-4.845,6.574-7.729,9.438c-4.418,4.671-9.633,8.477-14.129,13.06c-12.235,12.371-24.655,24.558-36.851,36.958
		c-5.117,6.195-11.235,11.575-15.614,18.362c-14.973,21.431-27.84,44.464-36.705,69.109c-7.157,19.421-12.478,39.667-14.585,60.292
		c2.486,0.272,4.981,0.563,7.467,0.884c-4.69,4.273-10.545,7.39-14.109,12.798c-2.224,3.068-3.369,6.885-3.02,10.691
		c0.447,5.778,1.146,11.905,4.574,16.78c2.029,3.078,5.098,5.302,7.089,8.409c0.621,1.68,0.544,3.525,0.621,5.302
		c-0.155,16.197-0.01,32.394-0.01,48.591c0.117,9.72-0.359,19.469,0.67,29.16c0.806,20.363-0.612,40.793,1.146,61.117
		c0.33,9.312-0.32,18.644,0.466,27.946c0.806,8.244,0.641,16.546,0.689,24.829c-7.914-4.098-15.061-9.71-20.838-16.498
		c-1.029-1.447-2.612-2.903-2.282-4.836c4.486-52.698,8.992-105.396,13.653-158.075c0.252-4.68,1.194-9.351,0.971-14.031
		c-6.283-4.836-12.585-10.244-15.808-17.682c-3.36-7.438-2.34-16.343,1.796-23.256c2.36-4.593,6.186-8.098,9.633-11.827
		c0.311-8.322,0.486-16.692,2.165-24.888c3.496-21.091,12.031-40.871,21.732-59.767c13.925-28.014,32.501-53.562,53.999-76.236
		C340.083,461.934,355.455,448.728,371.516,436.493z"/>
	<path fill="#171717" stroke="#171717" d="M833.039,700.081c-22.674,1.01-45.415,0.524-68.108,0.262
		c-9.613-0.253-19.236-0.311-28.83-0.99c-9.497-0.01-18.974-0.835-28.471-1.107c-1.117-0.165-2.389,0.019-3.311-0.709
		c-13.818,0.136-27.587-1.612-41.366-2.554c-8.05-0.767-16.129-1.262-24.13-2.379c-11.924-1.088-23.839-2.36-35.666-4.127
		c-16.304-1.816-32.53-4.292-48.688-7.069c-60.398-9.652-119.933-24.383-178.243-42.774c-1.379-40.987,6.525-81.742,18.43-120.797
		c9.788-31.957,22.829-62.797,37.375-92.85c2.554-1.738,5.234-3.282,7.875-4.884c4.253-2.699,8.574-5.292,12.944-7.817
		c62.389,20.421,124.594,41.386,186.915,62.02c51.737,17.343,103.639,34.161,155.356,51.562c1.855,0.592,3.845,0.641,5.778,0.34
		c0.068,7.108-0.165,14.216,0.078,21.324c10.157-3.166,19.741-7.924,29.898-11.099c-3.243,3.777-8.244,4.884-12.478,7.127
		c-0.34,7.39-0.078,14.789-0.126,22.188c0.01,6.341-0.32,12.701,0.437,19.013c0.699,5.612,0.612,11.274,0.476,16.915
		c-0.233,7.147,1.311,14.216,1.068,21.363c-0.126,5.37-0.253,10.759,0.398,16.1c1.476,14.061-0.524,28.247,1.214,42.298
		c0.651,6.04,0.262,12.138-0.107,18.197C825.513,699.595,829.281,699.76,833.039,700.081z"/>
	<path fill="#222222" stroke="#222222" d="M1152.043,410.159c-11.682,4.515-23.412,8.933-35.006,13.663
		c-15.304,6.263-30.889,11.847-46.182,18.139c-23.926,9.584-48.105,18.547-71.954,28.306c-22.295,8.71-44.648,17.275-66.865,26.15
		c-18.178,7.176-36.433,14.167-54.582,21.411c-10.293,4.04-20.596,8.021-30.869,12.089c-5.273,2.097-10.701,3.836-15.711,6.516
		c-3.243,3.777-8.244,4.884-12.478,7.127c-0.34,7.39-0.078,14.789-0.126,22.188c0.01,6.341-0.32,12.701,0.437,19.013
		c0.699,5.612,0.612,11.274,0.476,16.915c-0.233,7.147,1.311,14.216,1.068,21.363c-0.126,5.37-0.253,10.759,0.398,16.1
		c1.476,14.061-0.524,28.247,1.214,42.298c0.651,6.04,0.262,12.138-0.107,18.197c3.758-0.039,7.526,0.126,11.283,0.447
		c5.749,0.223,11.516-0.087,17.265-0.398c-0.126-36.326,15.003-70.895,35.462-100.259c6.924-8.71,13.42-17.818,21.363-25.655
		c6.953-7.37,14.041-14.643,21.674-21.314c14.128-12.177,29.063-23.421,44.901-33.297c5.554-3.321,10.914-7.069,16.906-9.584
		c6.574-4.088,13.517-7.506,20.44-10.953c18.508-8.098,37.2-16.022,56.738-21.314c1.049-0.291,2.107-0.563,3.185-0.835
		c15.168-4.176,30.549-7.681,46.144-9.827c2.486-0.359,4.962-0.816,7.477-1.126c7.526-0.33,15.002-1.67,22.567-1.486
		c11.128-0.787,22.285-0.291,33.442-0.33C1172.513,445.145,1162.938,427.21,1152.043,410.159z"/>
	<path fill="#4B4B4B" stroke="#4B4B4B" d="M1209.898,583.294c-2.146-41.23-12.565-81.897-29.296-119.593
		c-11.157,0.039-22.314-0.456-33.442,0.33c-7.564-0.184-15.041,1.155-22.567,1.486c-2.515,0.311-4.991,0.767-7.477,1.126
		c-15.595,2.146-30.976,5.651-46.144,9.827c-1.078,0.272-2.136,0.544-3.185,0.835c-19.537,5.292-38.23,13.216-56.738,21.314
		c-6.924,3.447-13.866,6.865-20.44,10.953c-5.991,2.515-11.351,6.263-16.906,9.584c-15.838,9.875-30.772,21.12-44.901,33.297
		c-7.632,6.671-14.721,13.944-21.674,21.314c-7.943,7.836-14.439,16.945-21.363,25.655c-20.46,29.364-35.588,63.933-35.462,100.259
		c22.13-0.835,44.299-1.971,66.322-4.272c29.655-2,59.136-6.292,88.597-10.206l-0.029-0.369
		c23.858-3.088,47.445-7.943,71.099-12.313l0.088-0.408c11.866-1.874,23.499-4.962,35.258-7.428c1.33-0.505,3.117-0.35,4.185-1.398
		c7.05-0.884,13.847-3.146,20.761-4.739c12.653-3.166,25.179-6.826,37.783-10.186l-0.068-0.505
		c7.458-1.398,14.566-4.195,21.819-6.37c3.505-1.282,7.322-1.961,10.555-3.884C1210.393,619.796,1210.645,601.414,1209.898,583.294z
		"/>
	<path fill="#DDC061" stroke="#DDC061" d="M275.791,656.229c4.603-1.961,11.06,1.136,10.681,6.603
		c-1.039,3.729-5.001,6.962-9.05,6.234c-3.486,0-6.797-2.651-7.04-6.215C270.712,659.841,272.985,657.239,275.791,656.229z"/>
</g>
<g>
	<path fill="#AC2C33" stroke="#AC2C33" d="M1034.723,838.123c15.663-7.487,35.161-6.943,50.348,1.661
		c15.119,8.157,25.703,22.586,33.141,37.725c5.651,11.575,8.079,25.276,4.117,37.734c-2.165,3.797-3.777,7.856-5.554,11.847
		c-0.272-7.72-0.641-15.643-3.904-22.771c-2.418-6.147-6.38-11.536-11.206-15.983c-4.7-13.06-12.245-25.393-23.014-34.307
		c-8.584-6.758-19.158-11.371-30.189-11.633c-7.496-0.505-14.886,0.913-22.256,2.01
		C1029.198,842.532,1032.072,840.473,1034.723,838.123z"/>
	<path fill="#A61D24" stroke="#A61D24" d="M1022.507,843.736c3.865-2.263,7.778-4.671,12.216-5.613
		c-2.651,2.35-5.525,4.409-8.516,6.283c7.37-1.097,14.76-2.515,22.256-2.01c11.031,0.262,21.606,4.875,30.189,11.633
		c10.769,8.914,18.314,21.246,23.014,34.307c-4.117-2.534-8.341-5.078-13.031-6.36c-7.885-1.864-16.42-0.612-23.402,3.515
		c-8.536,4.253-13.264,12.963-18.168,20.693c-9.487,16.479-16.741,34.093-24.227,51.533c-5.38,12.779-16.139,21.984-25.606,31.675
		c-20.635,19.294-42.376,37.356-64.467,54.961c-4.71,3.709-9.176,7.768-14.342,10.856c-1.855-3.69-1.777-8.652-5.244-11.283
		c-4.923-9.332-9.846-18.916-17.401-26.441c-4.098-4.418-9.244-7.671-13.323-12.08c1.301,0.534,2.593,1.117,3.904,1.719
		c13.497-10.827,26.257-22.557,38.599-34.666c11.701-12.002,23.295-24.324,32.355-38.502c10.079-18.372,18.887-37.492,30.558-54.941
		C997.066,865.254,1008.213,852.368,1022.507,843.736z"/>
	<path fill="#FCF7DA" stroke="#FCF7DA" d="M1388.083,878.013c22.295-4.496,45.522-8.205,68.089-3.292
		c32.18,6.496,60.117,29.898,72.954,59.991c17.838,38.783,31.898,80.314,33.064,123.351c0.476,26.985-5.7,55.495-23.781,76.352
		c-0.99-2.34-1.66-4.826-1.544-7.36c0.252-10.555-1.612-21.11-4.845-31.131c-3.253-9.215-7.273-18.518-14.274-25.538
		c-4.671-5.253-11.041-9.021-17.993-10.177c-8.118-1.088-16.158,2.34-22.528,7.147c-5.195,4.438-10.71,8.934-14.245,14.867
		c-6.283,13.313-16.304,24.324-25.936,35.268c-13.303,14.07-28.073,26.917-44.803,36.783c-14.818,9.322-30.743,16.634-46.348,24.509
		c-16.779,7.836-33.967,14.77-51.144,21.674c-65.069,25.295-131.906,45.804-199.315,63.836c-9.283,2.593-18.692,4.758-27.704,8.215
		c-28.209,9.419-56.369,18.964-84.723,27.937c-8.759,3.088-17.799,5.428-26.218,9.419c7.924-12.012,14.294-25.101,18.139-38.987
		c6.545-23.043,6.477-47.513,2.486-70.992c-2.845-17.11-7.71-33.802-12.866-50.339c-7.428-21.712-19.45-41.492-32.18-60.466
		c9.497-1.253,19.11-1.01,28.675-1.058c38.968-0.311,78.382,8.895,111.989,28.947c23.917,14.022,44.522,33.083,62.36,54.174
		c3.816,4.273,6.972,9.099,10.953,13.255c16.216-11.332,32.209-22.994,48.319-34.482c6.331-4.554,12.915-8.788,18.819-13.895
		c-4.923-3.447-10.157-6.419-15.614-8.885c6.312-4.671,12.682-9.283,18.974-13.993c-9.856-11.507-20.499-22.324-31.122-33.112
		c-4.049-4.02-8.04-8.108-12.371-11.808c-0.388-0.359-0.767-0.709-1.117-1.058c-7.467-7.409-15.498-14.294-23.994-20.499
		c-15.575-10.536-31.87-20.013-48.727-28.345c15.944-8.681,31.462-18.1,47.28-27.004c26.655-15.109,53.349-30.131,80.033-45.173
		c14.905-8.108,28.626-18.149,42.745-27.49c-0.408-0.379-1.243-1.117-1.651-1.486
		C1306.894,901.143,1346.794,886.83,1388.083,878.013z"/>
	<path fill="#961123" stroke="#961123" d="M1065.233,885.49c6.982-4.127,15.517-5.38,23.402-3.515
		c4.69,1.282,8.914,3.826,13.031,6.36c4.826,4.447,8.788,9.837,11.206,15.983c3.263,7.127,3.632,15.051,3.904,22.771
		c1.777-3.991,3.389-8.05,5.554-11.847c0.087,3.942-0.087,8.118-1.893,11.72c-1.777,2.437-3.603,5.03-6.457,6.302
		c0.456-7.409,1.194-14.993-1.107-22.188c-2.709-10.322-9.604-19.644-19.062-24.693c-14.76-8.04-35.19,0.592-40.803,16.158
		c-4.603,4.166-7.03,9.953-9.914,15.304c-5.972,11.759-11.293,23.839-16.284,36.035c-2.593,6.943-5.943,13.653-10.924,19.197
		c-16.993,19.188-36.754,35.608-56.106,52.319c-8.361,6.623-16.449,13.565-24.858,20.139c-5.224,4.506-11.555,7.885-15.789,13.439
		c-1.117,1.088,0.058,2.36,0.456,3.505c0.087,0.942,0.155,1.893,0.262,2.874c8.526,0.175,17.042-0.816,25.587-0.311
		c11.351,0.621,22.751,0.175,34.064,1.437c18.042,1.787,35.831,5.583,53.349,10.176c18.1,6.36,36.356,12.798,52.844,22.8
		c11.594,7.215,22.664,15.333,32.85,24.451c4.583,4.797,10.206,8.545,14.391,13.76c3.311,4.107,7.38,7.545,10.516,11.818
		c2.34,3.185,4.7,6.38,7.224,9.438c8.089-5.253,15.818-11.031,23.431-16.954c5.312-3.709,10.536-7.545,15.672-11.497
		c8.302-5.613,16.372-11.584,24.072-17.984c-2.855-3.729-6.477-6.758-9.487-10.332c-7.205-8.924-15.76-16.605-23.742-24.8
		c-2.583-2.884-6.506-5.059-7.273-9.137c4.331,3.7,8.322,7.788,12.371,11.808c10.623,10.788,21.266,21.606,31.122,33.112
		c-6.292,4.709-12.662,9.322-18.974,13.993c-15.838,11.633-31.665,23.285-47.513,34.909c-7.555-11.575-17.304-21.508-27.189-31.093
		c-12.779-12.109-26.616-23.237-41.988-31.899c-32.161-17.653-68.303-27.306-104.707-30.801c-4.069-0.359-8.137-0.553-12.206-0.456
		c-15.274-0.757-30.588-0.757-45.862-0.165c-0.048,0.437-0.146,1.292-0.194,1.719c4.632,6.642,9.662,13.002,14.158,19.731
		c12.73,18.974,24.752,38.754,32.18,60.466c5.156,16.537,10.021,33.229,12.866,50.339c3.991,23.48,4.059,47.95-2.486,70.992
		c-3.845,13.886-10.215,26.975-18.139,38.987c-3.078,4.107-6.011,8.341-9.429,12.177c-31.102,11.808-62.496,22.936-93.676,34.579
		c-2.136,0.854-4.389,1.505-6.71,1.34c3.166-5.234,7.322-9.788,10.526-15.002c10.856-16.857,19.333-35.278,25.043-54.495
		c10.468-37.375,9.273-78.858-7.526-114.233c-6.273-13.662-12.323-27.451-19.634-40.609c-6.69-12.002-14.672-23.247-23.353-33.889
		c-5.729,8.458-11.225,17.061-16.692,25.684c-4.04,6.147-7.846,12.439-11.885,18.576c-0.427-2.185,0.165-4.302,1.515-6.03
		c5.409-7.953,10.196-16.294,15.595-24.237c4.428-7.089,9.37-13.896,13.08-21.411c-4.622-3.496-9.429-6.749-13.808-10.545
		c-1.816-1.486-3.544-3.146-5.681-4.137c-2.855-0.427-5.719,0.272-8.526,0.67c-17.333,2.699-34.85,3.972-52.358,4.797
		c-3.748,0.184-7.594-0.35-11.254,0.621c-3.535,2.709-5.496,6.894-7.914,10.536c-10.031,16.449-17.139,34.433-24.538,52.154
		c-5.214,12.332-9.536,25.043-13.866,37.705c-2.039,5.817-3.971,11.672-5.865,17.537c-5.671,19.527-10.448,39.337-15.08,59.136
		c25.907,6.292,52.077,11.439,78.062,17.42c1.369-21.382,6.894-42.298,14.187-62.36c1.418-4.525,3.195-8.924,4.981-13.293
		c0.253,0.388,0.767,1.175,1.02,1.563c-9.031,24.587-17.265,49.999-18.275,76.372c-3.787-0.757-7.555-1.612-11.303-2.486
		c-23.674-5.011-47.251-10.439-70.924-15.42c1.359-8.205,3.777-16.177,5.642-24.276c3.671-14.498,7.147-29.083,12.002-43.24
		c10.575-30.646,21.198-61.437,35.909-90.394c3.748-7.516,8.283-14.604,13.031-21.508c-9.021-0.35-18.032-1.039-27.014-1.864
		c-8.196-1.845-16.818-2.515-24.47-6.186c4.078-1.942,8.215,0.573,12.225,1.427c7.273,1.748,14.76,2.389,22.149,3.467
		c12.954,2.136,25.995-0.126,38.997-0.466c14.964-0.136,29.772-2.476,44.609-4.176c1.33-0.427,3.437-0.33,4.03-1.845
		c-1.612-4.069-5.069-6.923-8.254-9.73c-7.069-6.933-9.924-17.42-9.312-27.121c0.049-5.069,2.865-9.458,4.127-14.235
		c-7.856,0.359-15.634,1.874-23.509,1.699c-11.342-0.204-22.732,0.573-34.015-0.923c-7.797-0.728-15.391-2.709-23.043-4.263
		c-18.77-4.243-36.637-13.653-49.474-28.17c-4.933-5.797-9.904-12.05-11.419-19.702c-2.758-9.506-3.059-19.537-2.127-29.325
		c2.758-14.837,15.197-26.373,29.238-30.811c7.661-2.612,15.857-2.835,23.878-2.437c4.7,0.214,9.293,1.758,14.031,1.34
		c-11.283-10.575-26.577-15.498-41.706-17.032c0.049-0.515,0.155-1.534,0.204-2.039c7.691,0.971,15.401,2.301,22.713,4.972
		c8.254,3.03,15.371,8.351,22.188,13.779c2.486,1.991,5.146,3.845,7.137,6.389c-3.243-0.272-6.419-1-9.448-2.136
		c-16.381-5.583-35.676-4.778-50.164,5.35c-7.768,4.884-13.798,12.818-15.206,22.013c-3.224,9.108-1.33,19.061,0.952,28.17
		c1.884,8.768,7.603,16.042,13.624,22.421c15.041,15.886,36.307,24.121,57.514,27.665c20.508,3.195,41.415,3.67,62.039,1.272
		c4.836-0.767,10.963-0.097,13.954-4.836c5.807-3.641,11.167-8.506,18.003-10.099c-3.884,3.962-9.147,6.001-13.439,9.438
		c-5.35,4.457-10.041,10.167-11.72,17.061c-1.826,6.749-0.913,14.08,2.088,20.363c4.777,10.662,13.002,19.324,21.761,26.849
		c5.914,4.544,11.507,9.837,18.595,12.497c6.555,2.437,13.352,4.389,20.353,4.972c8.788,0.456,17.75,0.524,26.325-1.748
		c7.361-1.932,14.906-4.302,20.858-9.244c4.981-4.049,8.594-9.739,10.099-15.983c1.428-8.817-0.233-17.721-3.272-26.014
		c3.467,2.632,3.389,7.594,5.244,11.283c5.166-3.088,9.633-7.147,14.342-10.856c22.091-17.605,43.833-35.666,64.467-54.961
		c9.468-9.691,20.227-18.896,25.606-31.675c7.487-17.44,14.74-35.054,24.227-51.533
		C1051.968,898.454,1056.697,889.743,1065.233,885.49 M917.713,1072.618c-2.641,5.545-5.467,11.332-10.458,15.148
		c-8.03,6.36-18.265,8.856-28.15,10.623c-13.09,1.379-26.655,1.01-39.074-3.787c-2.437-1.398-5.438-0.408-6.195,2.398
		c0.67,3.758,3.942,6.351,6.04,9.39c6.467,8.895,12.74,17.964,17.945,27.675c7.992,15.002,15.07,30.471,21.945,46.017
		c3.962,9.827,6.972,20.062,8.807,30.5c1.884,13.459,3.302,27.102,2.02,40.686c-0.253,9.137-2.127,18.11-3.564,27.102
		c-2.253,7.71-3.845,15.624-6.817,23.13c-6.71,18.809-16.449,36.433-27.869,52.766c4.826-0.903,9.273-3.039,13.896-4.603
		c26.034-9.604,52.115-19.091,78.159-28.665c4.952-2.67,7.458-8.147,10.798-12.449c10.73-15.634,17.818-33.637,21.392-52.222
		c3.573-25.354,1.476-51.368-5.205-76.042c-3.69-13.886-7.351-27.849-12.827-41.152
		C947.932,1115.305,933.891,1093.039,917.713,1072.618z"/>
	<path opacity="0.97" fill="#7D1B1B" stroke="#7D1B1B" enable-background="new    " d="M1053.007,902.542
		c5.613-15.566,26.043-24.198,40.803-16.158c9.458,5.049,16.352,14.371,19.062,24.693c2.301,7.195,1.563,14.779,1.107,22.188
		c2.855-1.272,4.68-3.865,6.457-6.302c-1.292,6.283-4.875,11.779-8.39,17.042c-6.758,9.565-15.236,17.75-23.858,25.606
		c-2.359,1.806-4.263,4.554-7.166,5.467c-1.505,0.34-3.117,0.476-4.379,1.427c-13.604,10.788-29.034,18.974-44.493,26.742
		c-6.836,0.214-12.895,3.632-19.314,5.554c-11.011,3.535-22.013,7.137-32.986,10.808c-6.632,2.127-13.138,4.777-20.071,5.787
		c19.353-16.711,39.113-33.132,56.106-52.319c4.981-5.545,8.332-12.254,10.924-19.197c4.972-1.058,8.691-4.845,12.75-7.661
		c7.972-6.205,15.255-13.497,20.567-22.149c2.466-4.166,4.709-8.681,5.001-13.594c0.223-3.049-1.321-6.487-4.37-7.487
		C1058.222,902.328,1055.571,902.619,1053.007,902.542z"/>
	<path opacity="0.97" fill="#A11922" stroke="#A11922" enable-background="new    " d="M659.02,891.617
		c6.331-1.185,12.798-1.35,19.207-0.845c-0.049,0.505-0.155,1.525-0.204,2.039c15.129,1.534,30.423,6.457,41.706,17.032
		c-4.739,0.418-9.332-1.126-14.031-1.34c-8.021-0.398-16.216-0.175-23.878,2.437c-14.041,4.438-26.48,15.974-29.238,30.811
		c-0.932,9.788-0.631,19.819,2.127,29.325c1.515,7.652,6.487,13.905,11.419,19.702c12.837,14.517,30.704,23.926,49.474,28.17
		c7.652,1.554,15.245,3.535,23.043,4.263c11.284,1.495,22.674,0.719,34.015,0.923c7.875,0.175,15.653-1.34,23.509-1.699
		c-1.262,4.777-4.078,9.167-4.127,14.235c-0.612,9.701,2.243,20.188,9.312,27.121c-11.847,3.564-24.188,5.088-36.297,7.467
		c-5.778-2.884-12.4-2.428-18.615-3.476c-20.304-2.787-40.512-6.991-59.787-14.041c-17.78-6.467-34.666-16.11-47.979-29.675
		c-11.361-11.449-19.45-26.014-23.441-41.619c-2-7.943-3.447-16.158-2.68-24.373c0.699-7.691,2.709-15.265,5.768-22.353
		c7.137-14.886,18.304-27.529,31.151-37.764c2.894-2.253,6.428-3.35,9.905-4.35C659.291,893.113,659.117,892.113,659.02,891.617z"/>
	<path opacity="0.97" fill="#991820" stroke="#991820" enable-background="new    " d="M614.197,918.068
		c11.691-13.167,27.315-23.334,44.823-26.451c0.097,0.495,0.272,1.495,0.359,1.991c-3.476,1-7.011,2.097-9.905,4.35
		c-12.847,10.235-24.014,22.878-31.151,37.764c-3.059,7.089-5.069,14.663-5.768,22.353c-0.767,8.215,0.68,16.43,2.68,24.373
		c3.991,15.604,12.08,30.17,23.441,41.619c13.313,13.565,30.199,23.208,47.979,29.675c19.275,7.05,39.482,11.254,59.787,14.041
		c6.215,1.049,12.837,0.592,18.615,3.476c-14.323,3.117-28.976,4.719-43.085,8.749c-7.39-1.078-14.876-1.719-22.149-3.467
		c-4.01-0.854-8.147-3.369-12.225-1.427c-3.069,0.136-5.904-1.787-8.798-2.68c-29.102-11.584-54.601-32.743-70.245-60
		c-10.147-17.828-15.954-39.007-12.138-59.486C598.738,939.888,605.137,927.711,614.197,918.068z"/>
	<path opacity="0.97" fill="#7D1B1B" stroke="#7D1B1B" enable-background="new    " d="M670.653,919.127
		c14.488-10.128,33.782-10.934,50.164-5.35c3.03,1.136,6.205,1.864,9.448,2.136c4.039,2.515,6.875,6.846,9.914,10.526
		c9.264,13.43,17.653,27.51,24.888,42.143c6.273,14.41,13.332,29.112,25.101,39.89c3.738,3.603,8.662,5.399,13.361,7.36
		c-2.991,4.739-9.118,4.069-13.954,4.836c-20.625,2.398-41.531,1.923-62.039-1.272c-1.214-4.913-4.506-8.924-6.516-13.497
		c-6.826-13.022-11.798-27.043-20.139-39.23c-5.389-8.011-11.662-15.575-19.46-21.343c-4.816-3.515-10.458-6.496-16.566-6.428
		c-3.282-0.019-6.331,1.301-9.409,2.243C656.854,931.945,662.884,924.011,670.653,919.127z"/>
	<path fill="#EBE7CB" stroke="#EBE7CB" d="M1234.601,931.576c11.099-4.807,22.072-9.914,33.316-14.41
		c0.408,0.369,1.243,1.107,1.651,1.486c-14.119,9.341-27.84,19.382-42.745,27.49c-26.684,15.041-53.378,30.063-80.033,45.173
		c-15.818,8.904-31.335,18.323-47.28,27.004c-14.993-7.312-30.481-13.837-46.687-17.906c-2.165-0.563-4.311-1.156-6.409-1.864
		c1.806-1.068,3.68-2.01,5.593-2.894C1113.134,975.078,1173.901,953.404,1234.601,931.576z"/>
	<path fill="#78101E" stroke="#78101E" d="M1076.642,976.505c1.262-0.952,2.874-1.088,4.379-1.427
		c-7.924,9.021-19.226,13.954-29.015,20.576c-1.913,0.884-3.787,1.826-5.593,2.894c-1.039,0.573-2.068,1.175-3.078,1.767
		c-40.628,21.936-82.13,42.211-123.749,62.166c-0.398-1.146-1.573-2.418-0.456-3.505c8.351-2.845,15.77-7.729,23.878-11.138
		c8.506-3.593,16.488-8.292,24.965-11.953c7.118-3.088,13.944-6.778,20.906-10.176c14.517-7.292,29.18-14.333,43.269-22.46
		C1047.608,995.479,1063.038,987.294,1076.642,976.505z"/>
	<path fill="#AF3339" stroke="#AF3339" d="M840.156,1000.072c5.389-2.03,11.293-1.971,16.983-2.068
		c8.846-0.165,18.246,1.855,25.315,7.399c4.078,4.409,9.225,7.661,13.323,12.08c7.555,7.526,12.478,17.11,17.401,26.441
		c3.039,8.293,4.7,17.197,3.272,26.014c-4.807,0.884-9.71,0.913-14.565,0.476c-0.961-7.788-0.058-15.818-2.573-23.392
		c-3.981-16.003-15.925-29.451-30.821-36.239c-8.147-3.641-16.964-5.807-25.888-6.069c-4.244-0.117-8.487-0.068-12.721-0.233
		C833.388,1003.209,836.845,1001.791,840.156,1000.072z"/>
	<path fill="#961123" stroke="#961123" d="M1043.336,1000.315c1.01-0.592,2.039-1.194,3.078-1.767
		c2.097,0.709,4.243,1.301,6.409,1.864c16.207,4.069,31.695,10.594,46.687,17.906c16.857,8.332,33.151,17.809,48.727,28.345
		c8.497,6.205,16.527,13.09,23.994,20.499c-3.069,0.039-5.263-2.272-7.341-4.175c-13.721-13.769-30.762-23.45-47.445-33.122
		c-14.74-7.904-29.646-15.711-45.474-21.246C1062.611,1005.277,1053.085,1002.286,1043.336,1000.315z"/>
	<path fill="#A92329" stroke="#A92329" d="M827.426,1003.189c4.214-1.126,8.322-2.826,12.73-3.117
		c-3.311,1.719-6.768,3.136-10.274,4.408c4.234,0.165,8.477,0.117,12.721,0.233c8.924,0.262,17.741,2.428,25.888,6.069
		c14.896,6.788,26.839,20.236,30.821,36.239c2.515,7.574,1.612,15.604,2.573,23.392c4.855,0.437,9.759,0.408,14.565-0.476
		c-1.505,6.244-5.117,11.934-10.099,15.983c-5.952,4.943-13.497,7.312-20.858,9.244c-8.574,2.272-17.537,2.204-26.325,1.748
		c-3.389-1.418-5.914-4.36-6.69-7.953c-1.777-6.234-2.331-12.711-3.321-19.091c-1.136-7.205-0.66-14.789-3.612-21.615
		c-2.544-5.826-5.826-11.371-10.099-16.09c-3.68-4.117-7.564-8.409-12.818-10.497c-4.37-1.728-9.031-2.534-13.507-3.865
		c-0.262-0.66-0.767-1.971-1.029-2.632c4.292-3.437,9.555-5.477,13.439-9.438C823.192,1004.306,825.406,1003.859,827.426,1003.189z"
		/>
	<path fill="#9E1C22" stroke="#9E1C22" d="M919.587,1062.481c41.619-19.955,83.121-40.23,123.749-62.166
		c9.749,1.971,19.275,4.962,28.636,8.302c-14.546,7.875-29.51,14.993-44.328,22.363c-7.322,2.913-14.197,6.817-21.295,10.244
		c-5.923,3.282-12.118,6.156-17.576,10.215c7.768,2.709,16.216,3.068,23.732,6.622c8.846,3.525,14.109,11.885,20.343,18.595
		c-17.517-4.593-35.307-8.39-53.349-10.176c-11.313-1.262-22.713-0.816-34.064-1.437c-8.545-0.505-17.061,0.485-25.587,0.311
		C919.742,1064.374,919.675,1063.423,919.587,1062.481z"/>
	<path fill="#842222" stroke="#842222" d="M1012.836,1008.802c6.419-1.923,12.478-5.341,19.314-5.554
		c-14.09,8.128-28.752,15.168-43.269,22.46c-6.962,3.399-13.789,7.089-20.906,10.176c-8.477,3.661-16.459,8.361-24.965,11.953
		c-8.108,3.408-15.527,8.293-23.878,11.138c4.234-5.554,10.565-8.933,15.789-13.439c8.409-6.574,16.498-13.517,24.858-20.139
		c6.933-1.01,13.439-3.661,20.071-5.787C990.822,1015.939,1001.824,1012.337,1012.836,1008.802z"/>
	<path fill="#AB292E" stroke="#AB292E" d="M1071.972,1008.617c15.828,5.535,30.733,13.342,45.474,21.246
		c16.682,9.672,33.724,19.353,47.445,33.122c1.709,2.399,3.214,4.952,4.768,7.477c-6.049,5.03-12.449,9.604-18.595,14.507
		c-1.864,1.699-3.816-0.874-5.37-1.787c-12.206-10.283-25.849-18.683-40.016-25.965c-16.741-7.982-34.307-14.138-52.271-18.702
		c-8.574-2.563-17.537-3.933-25.762-7.535C1042.462,1023.61,1057.426,1016.492,1071.972,1008.617z"/>
	<path fill="#A22127" stroke="#A22127" d="M796.372,1032.233c1.68-6.894,6.37-12.604,11.72-17.061
		c0.262,0.66,0.767,1.971,1.029,2.632c4.476,1.33,9.137,2.136,13.507,3.865c5.253,2.088,9.137,6.38,12.818,10.497
		c4.273,4.719,7.555,10.264,10.099,16.09c2.952,6.826,2.476,14.41,3.612,21.615c0.99,6.38,1.544,12.857,3.321,19.091
		c0.777,3.593,3.302,6.535,6.69,7.953c-7.001-0.583-13.798-2.534-20.353-4.972c-7.089-2.661-12.682-7.953-18.595-12.497
		c-8.759-7.526-16.983-16.187-21.761-26.849C795.46,1046.313,794.547,1038.982,796.372,1032.233z"/>
	<path fill="#A61D24" stroke="#A61D24" d="M1006.349,1041.225c7.098-3.428,13.973-7.331,21.295-10.244
		c8.225,3.602,17.187,4.972,25.762,7.535c17.964,4.564,35.53,10.72,52.271,18.702c14.167,7.283,27.81,15.682,40.016,25.965
		c1.554,0.913,3.505,3.486,5.37,1.787c6.147-4.904,12.546-9.477,18.595-14.507c-1.554-2.525-3.059-5.078-4.768-7.477
		c2.078,1.903,4.272,4.214,7.341,4.175c0.349,0.35,0.728,0.699,1.117,1.058c0.767,4.078,4.69,6.254,7.273,9.137
		c7.982,8.196,16.537,15.876,23.742,24.8c3.01,3.573,6.632,6.603,9.487,10.332c-7.7,6.399-15.77,12.371-24.072,17.984
		c-5.137,3.952-10.361,7.788-15.672,11.497c-7.613,5.923-15.342,11.701-23.431,16.954c-2.525-3.059-4.884-6.253-7.224-9.438
		c-3.136-4.273-7.205-7.71-10.516-11.818c-4.185-5.214-9.807-8.963-14.391-13.76c-10.186-9.118-21.256-17.236-32.85-24.451
		c-16.488-10.002-34.744-16.44-52.844-22.8c-6.234-6.71-11.497-15.071-20.343-18.595c-7.516-3.554-15.964-3.913-23.732-6.622
		C994.231,1047.381,1000.426,1044.507,1006.349,1041.225z"/>
	<path fill="#F4EFD3" stroke="#F4EFD3" d="M1477.223,1067.355c6.37-4.807,14.41-8.234,22.528-7.147
		c6.953,1.156,13.323,4.923,17.993,10.177c7.001,7.021,11.021,16.323,14.274,25.538c3.233,10.021,5.098,20.576,4.845,31.131
		c-0.117,2.534,0.553,5.02,1.544,7.36c-11.555,13.828-27.461,23.567-44.347,29.5c-16.702,5.671-33.666,10.526-50.581,15.498
		c-103.707,29.83-207.957,57.738-312.13,85.839c-22.285,5.807-44.425,12.216-66.846,17.469
		c-39.502,11.701-78.217,25.878-117.146,39.317c3.418-3.836,6.35-8.069,9.429-12.177c8.419-3.991,17.459-6.331,26.218-9.419
		c28.354-8.972,56.514-18.518,84.723-27.937c9.011-3.457,18.421-5.622,27.704-8.215c67.409-18.032,134.246-38.54,199.315-63.836
		c17.178-6.904,34.365-13.837,51.144-21.674c15.605-7.875,31.53-15.187,46.348-24.509c16.731-9.866,31.5-22.713,44.803-36.783
		c9.633-10.943,19.654-21.955,25.936-35.268C1466.513,1076.289,1472.028,1071.793,1477.223,1067.355z"/>
	<path fill="#9F1E27" stroke="#9F1E27" d="M801.354,1063.792c3.185,2.806,6.642,5.661,8.254,9.73
		c-0.592,1.515-2.699,1.418-4.03,1.845c-14.837,1.699-29.646,4.04-44.609,4.176c-13.002,0.34-26.043,2.602-38.997,0.466
		c14.109-4.03,28.762-5.632,43.085-8.749C777.165,1068.88,789.507,1067.355,801.354,1063.792z"/>
	<path fill="#F6FEE0" stroke="#F6FEE0" d="M918.402,1067.627c15.274-0.592,30.588-0.592,45.862,0.165
		c-6.788,1.767-13.808,0.651-20.702,0.874c-8.448,0.204-16.954-0.544-25.354,0.68
		C918.257,1068.919,918.354,1068.064,918.402,1067.627z"/>
	<path fill="#EBE7CB" stroke="#EBE7CB" d="M964.264,1067.792c4.069-0.097,8.137,0.097,12.206,0.456
		c36.404,3.496,72.546,13.148,104.707,30.801c15.372,8.662,29.209,19.79,41.988,31.899c9.885,9.584,19.635,19.518,27.189,31.093
		c15.847-11.623,31.675-23.276,47.513-34.909c5.457,2.466,10.691,5.438,15.614,8.885c-5.904,5.108-12.488,9.341-18.819,13.895
		c-16.109,11.487-32.102,23.15-48.319,34.482c-3.981-4.156-7.137-8.982-10.953-13.255c-17.838-21.091-38.443-40.152-62.36-54.174
		c-33.608-20.052-73.022-29.257-111.989-28.947c-9.565,0.049-19.178-0.194-28.675,1.058c-4.496-6.729-9.526-13.089-14.158-19.731
		c8.399-1.224,16.906-0.476,25.354-0.68C950.456,1068.443,957.477,1069.56,964.264,1067.792z"/>
	<path fill="#A82229" stroke="#A82229" d="M917.713,1072.618c16.177,20.421,30.219,42.687,40.842,66.516
		c5.477,13.303,9.138,27.267,12.827,41.152c-7.788,2.175-15.168,5.516-22.81,8.098c-20.042,7.283-39.91,15.041-60,22.198
		c-1.835-10.439-4.845-20.673-8.807-30.5c-6.875-15.546-13.954-31.015-21.945-46.017c-5.205-9.71-11.478-18.78-17.945-27.675
		c-2.097-3.039-5.37-5.632-6.04-9.39c0.757-2.806,3.758-3.797,6.195-2.398c12.42,4.797,25.985,5.166,39.074,3.787
		c9.885-1.767,20.12-4.263,28.15-10.623C912.246,1083.95,915.072,1078.163,917.713,1072.618z"/>
	<path fill="#A82229" stroke="#A82229" d="M805.626,1078.299c2.806-0.398,5.671-1.097,8.526-0.67
		c2.136,0.99,3.865,2.651,5.681,4.137c4.379,3.797,9.186,7.05,13.808,10.545c-3.709,7.516-8.652,14.323-13.08,21.411
		c-5.399,7.943-10.186,16.284-15.595,24.237c-1.35,1.729-1.942,3.845-1.515,6.03c-7.36,12.575-15.333,24.858-21.246,38.22
		c-3.272,7.205-6.185,14.585-9.205,21.907c-0.252-0.388-0.767-1.175-1.02-1.563c0.544-1.825,1.126-3.622,1.826-5.38
		c3.641-8.807,7.496-17.547,11.808-26.043c4.904-9.759,11.167-18.76,16.177-28.451c-4.991-0.349-10.002-0.165-14.964,0.379
		c-7.215,0.806-14.478,0.107-21.693,0.835c-4.923,0.495-9.866,0.68-14.799,0.592c-7.156-0.165-14.235,1.146-21.372,0.981
		c-6.486-0.175-12.944,0.495-19.401,0.942c7.399-17.721,14.507-35.705,24.538-52.154c2.418-3.641,4.379-7.827,7.914-10.536
		c3.661-0.971,7.506-0.437,11.254-0.621C770.776,1082.271,788.293,1080.998,805.626,1078.299z"/>
	<path fill="#EBE7CB" stroke="#EBE7CB" d="M712.067,1081.3c8.982,0.825,17.993,1.515,27.014,1.864
		c-4.748,6.904-9.283,13.993-13.031,21.508c-14.711,28.956-25.334,59.748-35.909,90.394c-4.855,14.158-8.331,28.743-12.002,43.24
		c-1.864,8.098-4.282,16.071-5.642,24.276c23.674,4.981,47.251,10.409,70.924,15.42c-3.729,2.962-4.263,7.992-6.05,12.128
		c-9.516-0.884-18.692-3.787-28.063-5.515c-10.963-2.272-21.916-4.593-32.85-6.982c-5.477-1.194-11.109-1.845-16.343-3.952
		c8.05-41.046,20.246-81.208,35.054-120.302c1.262-3.311,2.418-6.661,3.622-9.982c1.903-5.545,4.933-10.681,6.03-16.479
		c-7.516,1.612-14.459,5.059-21.635,7.71c-26.325,10.031-52.329,20.945-77.858,32.85c-9.497,4.768-19.401,8.7-28.548,14.129
		c-38.521,19.557-75.148,43.357-106.746,72.954c-26.043,24.82-47.755,54.038-64.904,85.636
		c-12.157,22.11-22.14,45.347-31.335,68.827c-20.761-6.05-40.881-14.051-61.408-20.8c-11.575-3.748-22.858-8.322-34.491-11.847
		c0.029,1.418,0.068,2.855,0.165,4.311c-7.419-18.527-13.993-37.385-21.819-55.737c-7.671-18.09-14.653-36.521-23.858-53.902
		c-8.312-14.313-16.935-28.558-27.694-41.201c-9.468-10.361-19.78-20.236-32.17-27.034c-6.477-3.942-13.711-6.302-20.945-8.39
		c-0.816-1.427-2.331-2.127-3.738-2.767c0.117-0.767,0.233-1.515,0.359-2.243c141.451-28.218,282.901-56.446,424.439-84.237
		C619.265,1098.166,665.739,1090.087,712.067,1081.3z"/>
	<path fill="#EBE7CB" stroke="#EBE7CB" d="M832.029,1099.73c8.681,10.642,16.663,21.887,23.353,33.889
		c7.312,13.157,13.361,26.946,19.634,40.609c16.799,35.375,17.993,76.857,7.526,114.233c-5.71,19.217-14.187,37.637-25.043,54.495
		c-3.204,5.214-7.36,9.769-10.526,15.002c-0.767,0.398-1.544,0.767-2.321,1.117c-0.903-0.456-1.787-0.893-2.651-1.311
		c7.759-13.4,13.565-27.82,19.081-42.26c6.943-19.1,12.08-38.958,13.866-59.233c1.981-21.819-0.66-44.017-7.467-64.817
		c-4.438-12.75-9.623-25.296-16.469-36.948c-6.147-10.827-12.536-21.615-20.304-31.355c-5.098,0.903-10.128,2.719-15.372,2.262
		C820.804,1116.791,826.3,1108.187,832.029,1099.73z"/>
	<path fill="#FCF7DA" stroke="#FCF7DA" d="M815.337,1125.414c5.244,0.456,10.274-1.359,15.372-2.262
		c7.768,9.74,14.158,20.528,20.304,31.355c6.846,11.652,12.031,24.198,16.469,36.948c6.807,20.8,9.448,42.997,7.467,64.817
		c-1.787,20.275-6.923,40.133-13.866,59.233c-5.516,14.439-11.322,28.859-19.081,42.26c0.864,0.417,1.748,0.854,2.651,1.311
		c-20.149,7.292-40.463,14.226-60.185,22.625c-51.708,21.392-103.406,42.803-155.123,64.166
		c-38.259,15.129-75.615,32.433-113.291,48.95c-38.948,17.304-77.838,34.714-116.718,52.183
		c-35.579,16.508-71.148,33.044-106.658,49.707c-15.546,7.234-31.015,14.692-46.998,20.945c-6.108,2.602-12.847,2.767-19.353,3.399
		c-3.185-2.544-7.021-3.952-10.866-5.088c0.952-0.408,1.894-0.816,2.865-1.146c15.148-1.194,29.587-7.555,41.123-17.372
		c20.965-17.479,32.811-43.512,38.589-69.711c2.088,3.253,3.146,7.001,3.836,10.788c1.185,6.506,3.933,12.575,5.234,19.061
		c1.457,6.273,2.68,12.633,4.574,18.809c1,3.758,5.593,4.059,8.817,3.836c3.991-17.081,10.108-33.549,15.051-50.358
		c3.282-11.264,6.448-22.557,10.089-33.714c1.224-3.593,1.952-7.322,2.534-11.05c3.166-8.681,5.399-17.663,8.535-26.344
		c2.398-7.691,5.71-15.1,7.166-23.052c3.777-8.71,6.652-17.78,9.924-26.684c9.196-23.48,19.178-46.717,31.335-68.827
		c17.148-31.598,38.861-60.816,64.904-85.636c31.598-29.597,68.225-53.397,106.746-72.954c9.147-5.428,19.052-9.361,28.548-14.129
		c25.528-11.905,51.533-22.819,77.858-32.85c7.176-2.651,14.119-6.098,21.635-7.71c-1.097,5.797-4.127,10.934-6.03,16.479
		c-1.204,3.321-2.36,6.671-3.622,9.982c-14.808,39.094-27.004,79.256-35.054,120.302c5.234,2.107,10.866,2.758,16.343,3.952
		c10.934,2.389,21.887,4.709,32.85,6.982c9.37,1.728,18.547,4.632,28.063,5.515c1.787-4.137,2.321-9.167,6.05-12.128
		c3.748,0.874,7.516,1.728,11.303,2.486c1.01-26.373,9.244-51.785,18.275-76.372c3.02-7.322,5.933-14.701,9.205-21.907
		c5.914-13.361,13.886-25.645,21.246-38.22C807.491,1137.853,811.297,1131.56,815.337,1125.414z"/>
	<path fill="#AD3036" stroke="#AD3036" d="M786.827,1143.057c4.962-0.544,9.973-0.728,14.964-0.379
		c-5.01,9.691-11.274,18.692-16.177,28.451c-4.311,8.497-8.166,17.236-11.808,26.043c-1.563,1.447-3.399,3.117-5.7,2.379
		c-23.897-4.078-47.891-7.613-71.808-11.614c-0.223-1.282-0.427-2.564-0.602-3.826c4.331-12.662,8.652-25.373,13.866-37.705
		c6.457-0.447,12.915-1.117,19.401-0.942c7.137,0.165,14.216-1.146,21.372-0.981c4.933,0.087,9.875-0.097,14.799-0.592
		C772.349,1143.164,779.612,1143.863,786.827,1143.057z"/>
	<path fill="#AD2E35" stroke="#AD2E35" d="M948.573,1188.385c7.642-2.583,15.022-5.923,22.81-8.098
		c6.681,24.674,8.778,50.688,5.205,76.042c-2.088,1.631-4.389,3.02-6.962,3.7c-7.302,2.136-14.701,3.884-21.945,6.195
		c-5.554,1.777-11.487,1.622-17.08,3.243c-14.371,3.962-28.597,8.487-43.085,11.992c-0.117-0.777-0.359-2.311-0.486-3.088
		c1.437-8.992,3.311-17.964,3.564-27.102c1.282-13.585-0.136-27.228-2.02-40.686C908.663,1203.427,928.53,1195.668,948.573,1188.385
		z"/>
	<path fill="#AB2A31" stroke="#AB2A31" d="M689.831,1201.65c1.894-5.865,3.826-11.72,5.865-17.537
		c0.175,1.262,0.379,2.544,0.602,3.826c23.917,4.001,47.911,7.535,71.808,11.614c2.301,0.738,4.137-0.932,5.7-2.379
		c-0.699,1.758-1.282,3.554-1.826,5.38c-1.787,4.37-3.564,8.768-4.981,13.293c-2,0.903-4.166,1.495-6.36,1.058
		c-21.305-3.204-42.512-7.059-63.836-10.176c-2.029-0.408-4.02-0.99-5.991-1.583C690.481,1203.961,690.151,1202.795,689.831,1201.65
		z"/>
	<path fill="#FCF7DA" stroke="#FCF7DA" d="M127.582,1193.774c6.758-1.932,13.75-2.894,20.615-4.36
		c-0.126,0.728-0.243,1.476-0.359,2.243c1.408,0.641,2.923,1.34,3.738,2.767c-11.39-1.544-22.557,2.952-32.277,8.448
		c-12.099,8.108-21.79,19.43-29.49,31.704c-9.477,14.808-13.944,32.277-15.265,49.678c-2.554,34.695,4.816,69.264,15.313,102.163
		c6.885,21.46,15.168,42.454,24.363,63.03c5.71,12.468,10.953,25.256,18.634,36.705c10.176,15.886,22.839,30.481,38.599,41.036
		c11.759,7.943,25.635,13.099,39.91,13.381c11.905,0.146,23.732-2.962,34.355-8.283c5.35-2.758,11.138-5.564,14.546-10.759
		c4.972-7.516,6.758-16.634,7.428-25.47c1.68-27.548-3.457-54.922-9.672-81.625c-2.253-10.361-6.166-20.236-9.652-30.209
		c-5.807-16.158-12.041-32.18-19.197-47.785c-8.011-16.886-16.566-33.705-28.277-48.377c-7.38-9.477-16.372-18.168-27.49-23.062
		c-10.72-4.729-23.596-3.933-33.675,2.01c-7.36,4.573-11.711,12.565-14.391,20.566c-4.36,14.099-4.826,29.112-3.738,43.735
		c1.68,22.295,6.826,44.25,14.527,65.224c8.477,22.217,19.625,44.318,37.579,60.437c8.429,7.545,19.353,13.565,30.957,13.089
		c4.991,0.146,7.904-4.748,8.73-9.07c1.728-8.506-0.097-17.197-1.622-25.587c-6.312-29.18-18.061-56.757-29.325-84.286
		c11.497,7.457,22.314,15.915,33.666,23.606c4.719,2.855,6.215,8.429,8.205,13.206c7.875,20.159,14.439,41.065,16.867,62.651
		c0.99,11.818,1.408,24.159-2.845,35.453c-1.835,5.088-5.04,9.642-9.118,13.206c-6.428,5.642-15.245,7.914-23.664,7.7
		c-10.371-0.146-19.994-4.962-28.345-10.759c-11.672-8.215-21.353-18.945-29.937-30.267c-19.188-25.82-32.889-55.446-41.949-86.238
		c-5.622-19.634-9.167-39.958-9.4-60.408c0.097-19.955,3.515-40.531,13.954-57.844c6.593-11.06,16.634-20.683,29.296-24.13
		c18.673-5.253,38.783,0.126,55.048,9.837c5.418,3.088,10.206,7.186,14.138,12.031c11.157,12.604,20.256,26.888,28.247,41.667
		c18.731,35.132,31.695,73.129,40.609,111.863c6.564,29.752,10.963,60.33,8.603,90.85c-0.855,8.293-2.068,16.731-5.632,24.363
		c-6.506,14.498-19.615,25.577-34.647,30.452c-30.986,10.099-67.137,0.971-90.297-21.79c-1.117-1.175-2.573-1.777-4.03-0.796
		c-9.769,4.312-19.615,8.468-29.345,12.895c1.719,4.04,3.933,7.846,6.312,11.546c-1.117,0.029-2.243,0.058-3.35,0.136
		c-2.466-4.583-4.845-9.215-7.127-13.876c10.594-5.04,21.266-9.904,31.898-14.837c-12.138-10.982-20.877-25.033-28.704-39.249
		c-10.419-19.227-19.052-39.356-26.966-59.709c-6.419-16.867-12.585-33.841-17.818-51.106c-5.739-24.227-9.38-49.037-9.555-73.954
		c0.117-22.79,3.302-46.017,12.944-66.865C89.003,1219.963,105.811,1201.727,127.582,1193.774z"/>
	<path fill="#D7D6B9" stroke="#D7D6B9" d="M119.299,1202.873c9.72-5.496,20.887-9.992,32.277-8.448
		c7.234,2.088,14.468,4.447,20.945,8.39c12.39,6.797,22.703,16.673,32.17,27.034c10.759,12.643,19.382,26.888,27.694,41.201
		c9.205,17.381,16.187,35.812,23.858,53.902c7.827,18.353,14.4,37.21,21.819,55.737c2.855,8.788,5.797,17.556,8.681,26.344
		c3.525,10.827,5.836,21.984,8.836,32.957c2.505,11.079,4.137,22.353,5.098,33.676c0.223,2.233,0.612,4.476,1.058,6.7
		c-0.272,9.089,0.291,18.217-0.806,27.276c-0.573,6.749-1.835,13.41-2.894,20.091c-5.778,26.198-17.624,52.232-38.589,69.711
		c-11.536,9.817-25.975,16.177-41.123,17.372c-15.575,1.214-31.432-2.127-45.153-9.604c-19.159-9.982-33.85-26.781-44.988-44.998
		c-2.379-3.7-4.593-7.506-6.312-11.546c9.73-4.428,19.576-8.584,29.345-12.895c1.457-0.981,2.913-0.379,4.03,0.796
		c23.159,22.761,59.311,31.889,90.297,21.79c15.032-4.875,28.141-15.954,34.647-30.452c3.564-7.632,4.777-16.071,5.632-24.363
		c2.36-30.52-2.039-61.098-8.603-90.85c-8.914-38.735-21.877-76.731-40.609-111.863c-7.992-14.779-17.09-29.063-28.247-41.667
		c-3.933-4.845-8.72-8.943-14.138-12.031c-16.265-9.71-36.375-15.09-55.048-9.837c-12.662,3.447-22.703,13.07-29.296,24.13
		c-10.439,17.313-13.857,37.89-13.954,57.844c0.233,20.45,3.777,40.774,9.4,60.408c9.06,30.792,22.761,60.418,41.949,86.238
		c8.584,11.322,18.265,22.052,29.937,30.267c8.351,5.797,17.974,10.614,28.345,10.759c8.419,0.214,17.236-2.059,23.664-7.7
		c4.078-3.564,7.283-8.118,9.118-13.206c4.253-11.293,3.836-23.635,2.845-35.453c-2.428-21.586-8.992-42.493-16.867-62.651
		c-1.991-4.777-3.486-10.351-8.205-13.206c-11.351-7.691-22.169-16.148-33.666-23.606c11.264,27.529,23.014,55.106,29.325,84.286
		c1.525,8.39,3.35,17.08,1.622,25.587c-0.825,4.321-3.738,9.215-8.73,9.07c-11.604,0.476-22.528-5.545-30.957-13.089
		c-17.954-16.119-29.102-38.22-37.579-60.437c-7.7-20.974-12.847-42.929-14.527-65.224c-1.088-14.624-0.621-29.636,3.738-43.735
		c2.68-8.001,7.03-15.993,14.391-20.566c10.079-5.943,22.955-6.739,33.675-2.01c11.118,4.894,20.11,13.585,27.49,23.062
		c11.711,14.672,20.266,31.491,28.277,48.377c7.157,15.604,13.391,31.627,19.197,47.785c3.486,9.973,7.399,19.848,9.652,30.209
		c6.215,26.703,11.351,54.077,9.672,81.625c-0.67,8.836-2.457,17.954-7.428,25.47c-3.408,5.195-9.196,8.001-14.546,10.759
		c-10.623,5.321-22.45,8.429-34.355,8.283c-14.274-0.282-28.15-5.438-39.91-13.381c-15.76-10.555-28.422-25.15-38.599-41.036
		c-7.681-11.448-12.924-24.237-18.634-36.705c-9.196-20.576-17.479-41.57-24.363-63.03c-10.497-32.899-17.867-67.467-15.313-102.163
		c1.321-17.401,5.787-34.87,15.265-49.678C97.509,1222.303,107.2,1210.981,119.299,1202.873z"/>
	<path fill="#A82229" stroke="#A82229" d="M674.75,1260.786c4.632-19.799,9.409-39.609,15.08-59.136
		c0.32,1.146,0.651,2.311,0.981,3.496c1.971,0.592,3.962,1.175,5.991,1.583c21.324,3.117,42.531,6.972,63.836,10.176
		c2.195,0.437,4.36-0.155,6.36-1.058c-7.292,20.062-12.818,40.978-14.187,62.36C726.827,1272.224,700.658,1267.078,674.75,1260.786z
		"/>
	<path fill="#A92329" stroke="#A92329" d="M969.625,1260.028c2.573-0.68,4.875-2.068,6.962-3.7
		c-3.573,18.585-10.662,36.589-21.392,52.222c-3.34,4.302-5.846,9.778-10.798,12.449c-26.043,9.574-52.125,19.061-78.159,28.665
		c-4.622,1.563-9.069,3.7-13.896,4.603c11.419-16.333,21.159-33.957,27.869-52.766c2.971-7.506,4.564-15.42,6.817-23.13
		c0.126,0.777,0.369,2.311,0.486,3.088c14.488-3.505,28.713-8.031,43.085-11.992c5.593-1.621,11.526-1.466,17.08-3.243
		C954.923,1263.912,962.322,1262.164,969.625,1260.028z"/>
	<path fill="#EEE9CE" stroke="#EEE9CE" d="M277.898,1376.378c11.633,3.525,22.916,8.098,34.491,11.847
		c20.528,6.749,40.648,14.75,61.408,20.8c-3.272,8.904-6.147,17.974-9.924,26.684c-4.35,7.953-6.72,16.779-10.021,25.189
		c-8.283-2.243-16.236-5.545-24.402-8.176c-11.215-4.447-23.13-7.147-33.87-12.73c-3-10.973-5.312-22.13-8.836-32.957
		c-2.884-8.788-5.826-17.556-8.681-26.344C277.966,1379.232,277.927,1377.795,277.898,1376.378z"/>
	<path fill="#F2EDD1" stroke="#F2EDD1" d="M353.852,1460.896c3.301-8.409,5.671-17.236,10.021-25.189
		c-1.457,7.953-4.768,15.362-7.166,23.052c-3.136,8.681-5.37,17.663-8.535,26.344c-4.438,9.312-6.487,19.566-10.419,29.112
		c-11.235-3.845-22.402-7.904-33.559-11.963c-1.641-7.224-0.253-14.769-2.457-21.887c-0.447-2.224-0.835-4.467-1.058-6.7
		c-0.961-11.322-2.593-22.596-5.098-33.676c10.74,5.583,22.654,8.283,33.87,12.73
		C337.617,1455.352,345.569,1458.653,353.852,1460.896z"/>
	<path fill="#F6F1D5" stroke="#F6F1D5" d="M301.737,1480.366c2.204,7.118,0.816,14.663,2.457,21.887
		c11.157,4.059,22.324,8.118,33.559,11.963c3.933-9.545,5.982-19.799,10.419-29.112c-0.583,3.729-1.311,7.457-2.534,11.05
		c-3.641,11.157-6.807,22.45-10.089,33.714c-4.943,16.809-11.06,33.277-15.051,50.358c-3.224,0.223-7.817-0.078-8.817-3.836
		c-1.893-6.176-3.117-12.536-4.574-18.809c-1.301-6.487-4.049-12.556-5.234-19.061c-0.689-3.787-1.748-7.535-3.836-10.788
		c1.058-6.681,2.321-13.342,2.894-20.091C302.028,1498.582,301.465,1489.455,301.737,1480.366z"/>
	<path opacity="0.97" fill="#F4EFD3" stroke="#F4EFD3" enable-background="new    " d="M124.834,1560.35
		c1.107-0.078,2.233-0.107,3.35-0.136c11.138,18.217,25.83,35.016,44.988,44.998c13.721,7.477,29.578,10.817,45.153,9.604
		c-0.971,0.33-1.913,0.738-2.865,1.146c3.845,1.136,7.681,2.544,10.866,5.088c-17.187,1.631-35.249,0.388-50.921-7.399
		c-8.613-4.263-16.323-10.099-23.761-16.119C140.234,1587.16,132.282,1573.682,124.834,1560.35z"/>
</g>
</svg>
