<?xml version="1.0" standalone="no"?>
<!DOCTYPE svg PUBLIC "-//W3C//DTD SVG 20010904//EN"
 "http://www.w3.org/TR/2001/REC-SVG-20010904/DTD/svg10.dtd">
<svg version="1.0" xmlns="http://www.w3.org/2000/svg"
 width="190.000000pt" height="196.000000pt" viewBox="0 0 190.000000 196.000000"
 preserveAspectRatio="xMidYMid meet">

<g transform="translate(0.000000,196.000000) scale(0.100000,-0.100000)"
fill="#000000" stroke="none">
<path d="M217 1938 c-22 -18 -28 -35 -33 -83 -3 -33 -15 -86 -26 -117 -25 -70
-20 -94 10 -45 13 23 29 37 42 37 16 0 20 6 20 34 0 21 -6 36 -15 40 -8 3 -15
15 -15 26 0 21 29 29 31 8 0 -7 6 5 13 27 11 38 14 40 51 41 45 0 55 -9 55
-49 0 -16 4 -26 10 -22 14 9 12 78 -2 97 -7 9 -36 19 -64 23 -45 6 -54 4 -77
-17z"/>
<path d="M327 1783 c-12 -12 -7 -33 8 -33 8 0 21 -12 29 -27 12 -22 15 -24 16
-10 0 20 -30 77 -40 77 -4 0 -10 -3 -13 -7z"/>
<path d="M1765 1710 c-28 -16 -54 -31 -60 -33 -5 -3 -7 -7 -4 -11 4 -4 31 7
60 25 65 39 63 38 58 43 -3 3 -27 -8 -54 -24z"/>
<path d="M1773 1664 c-57 -35 -55 -49 2 -17 25 13 45 29 45 34 0 12 2 12 -47
-17z"/>
<path d="M1593 1610 c-35 -22 -63 -42 -63 -45 0 -8 110 53 130 71 28 27 -6 13
-67 -26z"/>
<path d="M1753 1599 c-29 -17 -53 -35 -53 -40 0 -8 94 43 115 62 19 19 -11 8
-62 -22z"/>
<path d="M1662 1599 c-18 -12 -31 -24 -28 -26 6 -6 63 24 71 37 10 16 -7 11
-43 -11z"/>
<path d="M1788 1566 c-26 -19 -22 -27 7 -14 14 6 25 15 25 20 0 12 -12 9 -32
-6z"/>
<path d="M1567 1544 c-22 -14 -37 -28 -34 -30 7 -7 77 36 77 47 0 12 2 12 -43
-17z"/>
<path d="M1597 1509 c-38 -23 -66 -43 -64 -46 8 -7 137 67 137 78 0 12 5 14
-73 -32z"/>
<path d="M1713 1523 c-18 -9 -33 -20 -33 -25 0 -14 14 -9 45 17 35 28 32 30
-12 8z"/>
<path d="M1592 1452 c-34 -20 -62 -40 -62 -44 0 -7 36 11 120 62 8 4 12 11 10
14 -3 3 -34 -12 -68 -32z"/>
<path d="M1163 1117 c-22 -9 -23 -16 -23 -112 l0 -102 -45 -24 c-46 -25 -51
-35 -23 -53 21 -13 62 14 83 54 13 25 41 238 33 245 -2 1 -13 -2 -25 -8z"/>
<path d="M1400 1006 c0 -10 111 -67 123 -63 7 3 5 6 -5 6 -10 1 -18 5 -18 9 0
10 -73 52 -89 52 -6 0 -11 -2 -11 -4z"/>
<path d="M1380 865 c0 -77 -3 -105 -12 -106 -7 0 -193 -105 -413 -233 l-400
-232 -5 133 -5 133 -110 -63 -110 -64 -5 97 -5 97 -100 -58 c-55 -31 -101 -61
-102 -66 -2 -6 441 -269 518 -307 13 -6 96 38 351 185 183 106 426 246 541
312 114 66 207 123 207 128 0 4 -31 27 -70 49 -61 37 -74 41 -109 35 -34 -6
-48 -2 -101 29 -34 20 -63 36 -66 36 -2 0 -4 -47 -4 -105z"/>
<path d="M286 763 c-3 -10 -2 -38 3 -63 l8 -45 11 28 c15 37 15 58 -2 80 -14
18 -14 18 -20 0z"/>
<path d="M823 723 c-47 -27 -51 -34 -28 -53 20 -17 41 -7 65 32 34 56 28 59
-37 21z"/>
<path d="M192 643 c-2 -43 1 -51 13 -47 10 4 12 10 6 18 -5 6 -11 27 -14 46
-3 27 -4 23 -5 -17z"/>
</g>
</svg>
