<?xml version="1.0" encoding="utf-8"?>
<svg width="800px" height="800px" viewBox="0 0 27 27" xmlns="http://www.w3.org/2000/svg">
  <g id="Group_60" data-name="Group 60" transform="translate(-140 -214)">
    <path id="Imported-Layers_2_" d="M149,239v5a1,1,0,0,0,1,1h14v-6Zm15,0v6h14a1,1,0,0,0,1-1v-4a1,1,0,0,0-1-1Zm0-12H150a.923.923,0,0,0-1,.9V233h15v-6Zm0,0v6h14a1,1,0,0,0,1-1v-4a1,1,0,0,0-1-1Zm-22,6a1,1,0,0,0-1,1v4a1,1,0,0,0,1,1h14v-6Zm14,6h15v-6H156Zm14-18H157a.923.923,0,0,0-1,.9V227h15v-5.1a.923.923,0,0,0-1-.9Zm-28,0a1,1,0,0,0-1,1v4a1,1,0,0,0,1,1h14v-5.1a.923.923,0,0,0-1-.9Zm8-6a1,1,0,0,0-1,1v5h15v-5a1,1,0,0,0-1-1Z" fill="white" stroke="#444" stroke-linecap="square" stroke-width="2"/>
  </g>
</svg>