<?xml version="1.0" encoding="UTF-8"?>
<svg xmlns="http://www.w3.org/2000/svg" width="1200" height="630" viewBox="0 0 1200 630" role="img" aria-labelledby="title desc" preserveAspectRatio="xMidYMid slice">
  <title id="title">TikTok Shop - Social Media Term</title>
  <desc id="desc">Vibrant branded cover for TikTok Shop</desc>
  <defs>
    <linearGradient id="bg" x1="0" y1="0" x2="1" y2="1">
      <stop offset="0%" stop-color="hsl(73, 78%, 46%)" />
      <stop offset="45%" stop-color="hsl(118, 74%, 42%)" />
      <stop offset="100%" stop-color="hsl(168, 72%, 38%)" />
    </linearGradient>
    <linearGradient id="titleHighlight" x1="0" y1="0" x2="1" y2="1">
      <stop offset="0%" stop-color="hsl(263, 95%, 94%)" />
      <stop offset="100%" stop-color="hsl(318, 95%, 82%)" />
    </linearGradient>
    <filter id="blur" x="-20%" y="-20%" width="140%" height="140%">
      <feGaussianBlur stdDeviation="18" />
    </filter>
    <filter id="titlePop" x="-30%" y="-30%" width="160%" height="160%">
      <feDropShadow dx="0" dy="2" stdDeviation="4" flood-color="rgba(0,0,0,0.45)" />
      <feDropShadow dx="0" dy="10" stdDeviation="12" flood-color="rgba(0,0,0,0.28)" />
    </filter>
  </defs>

  <rect width="1200" height="630" fill="url(#bg)" />

  <g opacity="0.45" filter="url(#blur)">
    <circle cx="130" cy="110" r="120" fill="rgba(255,255,255,0.5)" />
    <circle cx="1110" cy="90" r="140" fill="rgba(255,255,255,0.22)" />
    <circle cx="1060" cy="560" r="180" fill="rgba(0,0,0,0.18)" />
  </g>

  <g opacity="0.35">
    <circle cx="600" cy="315" r="205" fill="rgba(255,255,255,0.12)" />
    <circle cx="600" cy="315" r="255" fill="none" stroke="rgba(255,255,255,0.2)" stroke-width="2" />
  </g>

  <g font-family="Poppins, Montserrat, Arial, sans-serif" fill="#0f172a">
    <g fill="url(#titleHighlight)" filter="url(#titlePop)" stroke="rgba(3,7,18,0.45)" stroke-width="1.3" paint-order="stroke fill">
      <text x="600" y="315" text-anchor="middle" font-size="72" font-weight="800" letter-spacing="0.2">TikTok Shop</text>
    </g>
  </g>

  <g fill="none" stroke="rgba(15,23,42,0.24)" stroke-width="3">
    <path d="M770 190 C890 140, 1020 220, 1080 170" />
    <path d="M790 250 C900 200, 980 290, 1080 260" />
    <path d="M780 312 C900 280, 1010 360, 1090 330" />
  </g>
</svg>
